<svg xmlns="http://www.w3.org/2000/svg" xmlns:xlink="http://www.w3.org/1999/xlink" width="500" zoomAndPan="magnify" viewBox="0 0 375 374.999991" height="500" preserveAspectRatio="xMidYMid meet" version="1.0"><defs><g/><clipPath id="id1"><path d="M 86.796875 183.566406 L 94.296875 183.566406 L 94.296875 191.066406 L 86.796875 191.066406 Z M 86.796875 183.566406 " clip-rule="nonzero"/></clipPath><clipPath id="id2"><path d="M 279.648438 183.566406 L 287.148438 183.566406 L 287.148438 191.066406 L 279.648438 191.066406 Z M 279.648438 183.566406 " clip-rule="nonzero"/></clipPath><clipPath id="id3"><path d="M 201 121.910156 L 229.296875 121.910156 L 229.296875 148.554688 L 201 148.554688 Z M 201 121.910156 " clip-rule="nonzero"/></clipPath><clipPath id="id4"><path d="M 199.203125 147.058594 L 224.335938 147.058594 L 224.335938 258.507812 L 199.203125 258.507812 Z M 199.203125 147.058594 " clip-rule="nonzero"/></clipPath></defs><g clip-path="url(#id1)"><path fill="#d4917e" d="M 90.546875 183.566406 C 88.472656 183.566406 86.796875 185.246094 86.796875 187.316406 C 86.796875 189.390625 88.472656 191.066406 90.546875 191.066406 C 92.617188 191.066406 94.296875 189.390625 94.296875 187.316406 C 94.296875 185.246094 92.617188 183.566406 90.546875 183.566406 " fill-opacity="1" fill-rule="nonzero"/></g><g fill="#d4917e" fill-opacity="1"><g transform="translate(103.968561, 254.856118)"><g><path d="M 17.078125 1.96875 L 17.640625 2.578125 L 6.671875 7.359375 L 6.484375 7.171875 L 9.671875 0.625 L 3.015625 3.53125 L 2.828125 3.34375 L 8.078125 -7.46875 L 9.3125 -6.171875 L 4.84375 2.171875 L 10.140625 -0.3125 L 11.734375 -3.640625 L 12.984375 -2.328125 L 8.5 6.015625 Z M 17.078125 1.96875 "/></g></g></g><g fill="#d4917e" fill-opacity="1"><g transform="translate(117.696266, 268.389683)"><g><path d="M 1.1875 0.90625 L 7.859375 -7.84375 L 13.15625 -3.796875 L 12.328125 -3.015625 L 10.203125 -5.296875 C 9.765625 -5.628906 9.226562 -5.910156 8.59375 -6.140625 L 6.15625 -2.9375 L 9.09375 -0.703125 L 8.71875 -0.21875 L 5.78125 -2.453125 L 2.828125 1.421875 L 7.234375 4.125 L 6.4375 4.90625 Z M 1.1875 0.90625 "/></g></g></g><g fill="#d4917e" fill-opacity="1"><g transform="translate(129.251066, 276.822602)"><g><path d="M 1.3125 0.734375 L 6.6875 -8.859375 L 9.421875 -7.328125 C 10.523438 -6.703125 11.300781 -6.019531 11.75 -5.28125 C 12.195312 -4.539062 12.207031 -3.789062 11.78125 -3.03125 C 11.476562 -2.5 11.03125 -2.140625 10.4375 -1.953125 C 9.851562 -1.765625 9.175781 -1.757812 8.40625 -1.9375 C 9.1875 -1.28125 9.679688 -0.613281 9.890625 0.0625 C 10.097656 0.75 10.054688 1.347656 9.765625 1.859375 C 9.484375 2.367188 9.109375 2.726562 8.640625 2.9375 C 8.171875 3.15625 7.6875 3.253906 7.1875 3.234375 C 6.125 3.171875 5.164062 2.898438 4.3125 2.421875 Z M 5.640625 -3.6875 L 6.671875 -3.09375 C 7.546875 -2.601562 8.285156 -2.445312 8.890625 -2.625 C 9.492188 -2.800781 9.960938 -3.1875 10.296875 -3.78125 C 10.515625 -4.164062 10.582031 -4.59375 10.5 -5.0625 C 10.414062 -5.53125 10.140625 -6.003906 9.671875 -6.484375 C 9.015625 -6.847656 8.335938 -7.109375 7.640625 -7.265625 Z M 5.40625 -3.265625 L 3.078125 0.859375 C 3.328125 1.140625 3.773438 1.457031 4.421875 1.8125 C 5.066406 2.175781 5.742188 2.320312 6.453125 2.25 C 7.160156 2.175781 7.691406 1.820312 8.046875 1.1875 C 8.398438 0.550781 8.421875 -0.132812 8.109375 -0.875 C 7.804688 -1.613281 7.269531 -2.203125 6.5 -2.640625 Z M 5.40625 -3.265625 "/></g></g></g><g fill="#d4917e" fill-opacity="1"><g transform="translate(151.32971, 287.423153)"><g><path d="M 1.4375 0.40625 L 4.4375 -10.171875 L 7.46875 -9.3125 C 8.71875 -8.957031 9.773438 -8.367188 10.640625 -7.546875 C 11.097656 -7.109375 11.472656 -6.625 11.765625 -6.09375 C 12.054688 -5.5625 12.226562 -4.9375 12.28125 -4.21875 C 12.34375 -3.507812 12.265625 -2.765625 12.046875 -1.984375 C 11.722656 -0.859375 11.171875 0.015625 10.390625 0.640625 C 8.941406 1.765625 7.066406 2.003906 4.765625 1.359375 Z M 4.609375 0.71875 C 5.960938 1.101562 7.160156 1.007812 8.203125 0.4375 C 9.242188 -0.132812 9.984375 -1.191406 10.421875 -2.734375 C 10.753906 -3.921875 10.71875 -5.03125 10.3125 -6.0625 C 9.90625 -7.09375 9.222656 -7.890625 8.265625 -8.453125 C 7.347656 -8.710938 6.507812 -8.832031 5.75 -8.8125 L 3.203125 0.171875 C 3.515625 0.359375 3.984375 0.539062 4.609375 0.71875 Z M 4.609375 0.71875 "/></g></g></g><g fill="#d4917e" fill-opacity="1"><g transform="translate(167.563081, 291.565217)"><g><path d="M 1.484375 0.203125 L 2.921875 -10.703125 L 9.53125 -9.84375 L 9.21875 -8.75 L 6.21875 -9.65625 C 5.675781 -9.726562 5.070312 -9.710938 4.40625 -9.609375 L 3.875 -5.625 L 7.53125 -5.140625 L 7.453125 -4.515625 L 3.796875 -5 L 3.15625 -0.1875 L 8.3125 -0.015625 L 8.03125 1.0625 Z M 1.484375 0.203125 "/></g></g></g><g fill="#d4917e" fill-opacity="1"><g transform="translate(181.758297, 293.119406)"><g><path d="M 5.09375 0.234375 L 0.109375 -11 L 1.90625 -11.015625 L 5.609375 -2.03125 L 8.859375 -11.046875 L 9.6875 -11.046875 L 5.359375 0.234375 Z M 5.09375 0.234375 "/></g></g></g><g fill="#d4917e" fill-opacity="1"><g transform="translate(196.611305, 292.686942)"><g><path d="M 1.484375 -0.21875 L -0.0625 -11.109375 L 6.53125 -12.046875 L 6.515625 -10.90625 L 3.390625 -10.96875 C 2.835938 -10.894531 2.257812 -10.722656 1.65625 -10.453125 L 2.21875 -6.453125 L 5.875 -6.96875 L 5.96875 -6.359375 L 2.3125 -5.84375 L 3 -1.03125 L 8.015625 -2.25 L 8.015625 -1.140625 Z M 1.484375 -0.21875 "/></g></g></g><g fill="#d4917e" fill-opacity="1"><g transform="translate(210.639148, 290.335281)"><g><path d="M 1.453125 -0.390625 L -1.46875 -11 L 0.09375 -11.4375 L 2.78125 -1.6875 C 3.476562 -1.675781 4.023438 -1.726562 4.421875 -1.84375 L 7.171875 -3.125 L 7.296875 -2.015625 Z M 1.453125 -0.390625 "/></g></g></g><g fill="#d4917e" fill-opacity="1"><g transform="translate(223.179257, 286.661633)"><g><path d="M 1.515625 -12.859375 C 2.828125 -13.429688 4.101562 -13.472656 5.34375 -12.984375 C 6.582031 -12.492188 7.535156 -11.472656 8.203125 -9.921875 C 8.640625 -8.929688 8.84375 -7.988281 8.8125 -7.09375 C 8.789062 -6.195312 8.59375 -5.414062 8.21875 -4.75 C 7.46875 -3.488281 6.4375 -2.570312 5.125 -2 C 3.820312 -1.4375 2.550781 -1.40625 1.3125 -1.90625 C 0.0703125 -2.414062 -0.882812 -3.441406 -1.5625 -4.984375 C -1.90625 -5.796875 -2.101562 -6.570312 -2.15625 -7.3125 C -2.207031 -8.050781 -2.132812 -8.707031 -1.9375 -9.28125 C -1.738281 -9.851562 -1.457031 -10.378906 -1.09375 -10.859375 C -0.40625 -11.734375 0.460938 -12.398438 1.515625 -12.859375 Z M 2.140625 -2.984375 C 2.609375 -2.660156 3.113281 -2.46875 3.65625 -2.40625 C 4.207031 -2.351562 4.773438 -2.453125 5.359375 -2.703125 C 5.941406 -2.953125 6.398438 -3.320312 6.734375 -3.8125 C 7.066406 -4.3125 7.257812 -4.859375 7.3125 -5.453125 C 7.414062 -6.640625 7.226562 -7.78125 6.75 -8.875 C 6.164062 -10.21875 5.425781 -11.179688 4.53125 -11.765625 C 3.519531 -12.429688 2.320312 -12.46875 0.9375 -11.875 C 0.101562 -11.101562 -0.378906 -10.179688 -0.515625 -9.109375 C -0.648438 -8.046875 -0.488281 -6.984375 -0.03125 -5.921875 C 0.53125 -4.617188 1.253906 -3.640625 2.140625 -2.984375 Z M 2.140625 -2.984375 "/></g></g></g><g fill="#d4917e" fill-opacity="1"><g transform="translate(238.611761, 279.447587)"><g><path d="M 3.265625 -11.609375 C 3.828125 -10.703125 3.921875 -9.8125 3.546875 -8.9375 C 3.171875 -8.0625 2.410156 -7.269531 1.265625 -6.5625 L 0.0625 -5.8125 L 2.640625 -1.640625 L 1.28125 -0.796875 L -4.515625 -10.140625 L -1.5 -12.015625 C -0.539062 -12.609375 0.375 -12.875 1.25 -12.8125 C 2.132812 -12.757812 2.804688 -12.359375 3.265625 -11.609375 Z M -0.1875 -6.203125 L 1.0625 -6.96875 C 1.5 -7.25 1.820312 -7.570312 2.03125 -7.9375 C 2.25 -8.3125 2.347656 -8.671875 2.328125 -9.015625 C 2.273438 -9.648438 2.113281 -10.191406 1.84375 -10.640625 C 1.707031 -10.847656 1.488281 -11.066406 1.1875 -11.296875 C 0.59375 -11.773438 -0.113281 -11.890625 -0.9375 -11.640625 C -1.613281 -11.222656 -2.195312 -10.753906 -2.6875 -10.234375 Z M -0.1875 -6.203125 "/></g></g></g><g fill="#d4917e" fill-opacity="1"><g transform="translate(250.330776, 271.809235)"><g><path d="M 1.15625 -0.953125 L -5.828125 -9.453125 L -0.6875 -13.671875 L -0.09375 -12.703125 L -2.796875 -11.140625 C -3.222656 -10.796875 -3.625 -10.34375 -4 -9.78125 L -1.453125 -6.671875 L 1.390625 -9.015625 L 1.796875 -8.53125 L -1.046875 -6.1875 L 2.03125 -2.421875 L 5.671875 -6.09375 L 6.25 -5.140625 Z M 1.15625 -0.953125 "/></g></g></g><g fill="#d4917e" fill-opacity="1"><g transform="translate(261.191443, 262.505226)"><g><path d="M -1.75 -5.84375 L 2.109375 -2.296875 L 1.015625 -1.109375 L -7.078125 -8.5625 L -4.65625 -11.1875 C -3.894531 -12.019531 -3.085938 -12.523438 -2.234375 -12.703125 C -1.378906 -12.890625 -0.65625 -12.707031 -0.0625 -12.15625 C 0.53125 -11.601562 0.804688 -10.957031 0.765625 -10.21875 C 0.722656 -9.476562 0.441406 -8.691406 -0.078125 -7.859375 L 6.890625 -7.5 L 5.75 -5.921875 L -0.875 -6.796875 Z M -2.125 -6.1875 L -1.40625 -6.96875 C -0.0507812 -8.4375 0.046875 -9.703125 -1.109375 -10.765625 C -1.296875 -10.941406 -1.5625 -11.09375 -1.90625 -11.21875 C -2.582031 -11.507812 -3.285156 -11.425781 -4.015625 -10.96875 C -4.523438 -10.414062 -4.957031 -9.800781 -5.3125 -9.125 Z M -2.125 -6.1875 "/></g></g></g><g fill="#d4917e" fill-opacity="1"><g transform="translate(109.089139, 134.865864)"><g><path d="M 0.90625 -1.203125 L -7.890625 -7.796875 L -6.921875 -9.09375 L 1.15625 -3.03125 C 1.726562 -3.457031 2.132812 -3.832031 2.375 -4.15625 L 3.75 -6.875 L 4.53125 -6.046875 Z M 0.90625 -1.203125 "/></g></g></g><g fill="#d4917e" fill-opacity="1"><g transform="translate(116.134701, 125.760859)"><g><path d="M 3.96875 -4.09375 L 2.84375 -2.921875 L -0.078125 -5.765625 L -7.65625 -7.890625 L -6.40625 -9.1875 L 0.265625 -7.015625 L -2.25 -13.46875 L -1.6875 -14.0625 L 0.96875 -7 Z M 3.96875 -4.09375 "/></g></g></g><g fill="#d4917e" fill-opacity="1"><g transform="translate(125.012748, 116.83592)"><g><path d="M 7.90625 -5.875 L 7.671875 -5.703125 L -3.640625 -8.46875 L -3.703125 -8.421875 L 1.75 -1.359375 L 1.1875 -0.921875 L -5.53125 -9.625 L -4.5625 -10.359375 L 5.328125 -7.90625 L 5.390625 -7.953125 L 0.5 -14.28125 L 1.078125 -14.71875 Z M 7.90625 -5.875 "/></g></g></g><g fill="#d4917e" fill-opacity="1"><g transform="translate(136.717237, 108.094912)"><g><path d="M 1.3125 -0.71875 L -3.984375 -10.359375 L -1.234375 -11.875 C -0.0859375 -12.5 1.078125 -12.828125 2.265625 -12.859375 C 2.898438 -12.867188 3.503906 -12.785156 4.078125 -12.609375 C 4.660156 -12.429688 5.222656 -12.109375 5.765625 -11.640625 C 6.316406 -11.171875 6.789062 -10.582031 7.1875 -9.875 C 7.75 -8.84375 7.972656 -7.828125 7.859375 -6.828125 C 7.609375 -5.015625 6.4375 -3.535156 4.34375 -2.390625 Z M 3.78125 -2.734375 C 5.019531 -3.410156 5.8125 -4.316406 6.15625 -5.453125 C 6.5 -6.585938 6.28125 -7.859375 5.5 -9.265625 C 4.90625 -10.347656 4.101562 -11.113281 3.09375 -11.5625 C 2.082031 -12.007812 1.03125 -12.097656 -0.0625 -11.828125 C -0.894531 -11.367188 -1.578125 -10.863281 -2.109375 -10.3125 L 2.390625 -2.125 C 2.753906 -2.21875 3.21875 -2.421875 3.78125 -2.734375 Z M 3.78125 -2.734375 "/></g></g></g><g fill="#d4917e" fill-opacity="1"><g transform="translate(150.085574, 101.126928)"><g><path d="M -0.65625 -9.4375 C -0.488281 -8.988281 -0.15625 -8.632812 0.34375 -8.375 C 0.851562 -8.125 1.421875 -7.945312 2.046875 -7.84375 C 2.671875 -7.738281 3.289062 -7.628906 3.90625 -7.515625 C 4.53125 -7.398438 5.101562 -7.1875 5.625 -6.875 C 6.15625 -6.5625 6.519531 -6.132812 6.71875 -5.59375 C 7.039062 -4.75 6.988281 -3.9375 6.5625 -3.15625 C 6.144531 -2.382812 5.398438 -1.796875 4.328125 -1.390625 C 3.265625 -0.992188 2.125 -0.804688 0.90625 -0.828125 L 0.625 -1.5625 C 1.894531 -1.414062 2.898438 -1.476562 3.640625 -1.75 C 4.390625 -2.03125 4.898438 -2.429688 5.171875 -2.953125 C 5.453125 -3.484375 5.472656 -4.070312 5.234375 -4.71875 C 5.078125 -5.144531 4.757812 -5.472656 4.28125 -5.703125 C 3.800781 -5.929688 3.265625 -6.085938 2.671875 -6.171875 C 2.085938 -6.253906 1.5 -6.34375 0.90625 -6.4375 C 0.320312 -6.53125 -0.21875 -6.726562 -0.71875 -7.03125 C -1.226562 -7.34375 -1.597656 -7.804688 -1.828125 -8.421875 C -2.054688 -9.035156 -1.992188 -9.703125 -1.640625 -10.421875 C -1.296875 -11.148438 -0.582031 -11.71875 0.5 -12.125 C 1.195312 -12.382812 2.144531 -12.5625 3.34375 -12.65625 L 3.578125 -11.515625 C 1.960938 -11.597656 0.65625 -11.453125 -0.34375 -11.078125 C -0.789062 -10.617188 -0.894531 -10.070312 -0.65625 -9.4375 Z M -0.65625 -9.4375 "/></g></g></g><g fill="#d4917e" fill-opacity="1"><g transform="translate(161.949229, 96.900918)"><g><path d="M 0.171875 -0.03125 L 2.515625 -12.109375 L 2.765625 -12.15625 L 10.03125 -2.234375 L 8.265625 -1.84375 L 6.40625 -4.46875 L 1.59375 -3.40625 L 1.03125 -0.234375 Z M 1.703125 -4.078125 L 6 -5.046875 L 2.703125 -9.8125 Z M 1.703125 -4.078125 "/></g></g></g><g fill="#d4917e" fill-opacity="1"><g transform="translate(175.477937, 94.171536)"><g><path d="M 5.6875 -0.453125 L 4.0625 -0.328125 L 3.734375 -4.390625 L -0.546875 -11 L 1.265625 -11.140625 L 4.828125 -5.09375 L 7.1875 -11.625 L 8.015625 -11.6875 L 5.359375 -4.609375 Z M 5.6875 -0.453125 "/></g></g></g><g fill="#d4917e" fill-opacity="1"><g transform="translate(188.236381, 93.471727)"><g/></g></g><g fill="#d4917e" fill-opacity="1"><g transform="translate(195.954666, 93.76471)"><g><path d="M 3.859375 -5.640625 L 7.359375 -5.1875 L 7.28125 -4.5625 L 3.78125 -5.015625 L 3.078125 0.390625 L 1.484375 0.1875 L 2.890625 -10.71875 L 9.328125 -9.890625 L 9.1875 -8.78125 L 6.203125 -9.6875 C 5.648438 -9.757812 5.039062 -9.742188 4.375 -9.640625 Z M 3.859375 -5.640625 "/></g></g></g><g fill="#d4917e" fill-opacity="1"><g transform="translate(207.216864, 95.348863)"><g><path d="M 12.203125 -8.109375 L 10.453125 -1.59375 C 10.179688 -0.59375 9.863281 0.125 9.5 0.5625 C 9.351562 0.757812 9.132812 0.972656 8.84375 1.203125 C 8.5625 1.429688 8.257812 1.59375 7.9375 1.6875 C 7.132812 1.914062 6.195312 1.882812 5.125 1.59375 C 2.476562 0.882812 1.519531 -0.832031 2.25 -3.5625 L 4.0625 -10.296875 L 5.703125 -9.859375 L 3.859375 -3 C 3.773438 -2.6875 3.707031 -2.4375 3.65625 -2.25 C 3.613281 -2.0625 3.597656 -1.773438 3.609375 -1.390625 C 3.617188 -1.003906 3.6875 -0.679688 3.8125 -0.421875 C 3.9375 -0.160156 4.160156 0.101562 4.484375 0.375 C 4.816406 0.644531 5.242188 0.851562 5.765625 1 C 7.765625 1.539062 9.050781 0.738281 9.625 -1.40625 L 11.484375 -8.296875 Z M 12.203125 -8.109375 "/></g></g></g><g fill="#d4917e" fill-opacity="1"><g transform="translate(220.906907, 99.34662)"><g><path d="M 4.828125 2.046875 L 3.34375 1.421875 L 7.34375 -7.96875 C 7.03125 -8.1875 6.703125 -8.367188 6.359375 -8.515625 L 4.09375 -8.921875 L 4.453125 -10.0625 L 12.328125 -6.71875 L 11.796875 -5.65625 L 9.90625 -7 C 9.5625 -7.144531 9.203125 -7.257812 8.828125 -7.34375 Z M 4.828125 2.046875 "/></g></g></g><g fill="#d4917e" fill-opacity="1"><g transform="translate(232.113232, 104.298555)"><g><path d="M 5.390625 -2.890625 L 2.6875 1.609375 L 1.28125 0.765625 L 6.9375 -8.671875 L 10.015625 -6.828125 C 10.972656 -6.253906 11.628906 -5.566406 11.984375 -4.765625 C 12.335938 -3.972656 12.304688 -3.226562 11.890625 -2.53125 C 11.472656 -1.832031 10.894531 -1.425781 10.15625 -1.3125 C 9.425781 -1.207031 8.601562 -1.320312 7.6875 -1.65625 L 8.734375 5.234375 L 6.953125 4.4375 L 6.484375 -2.234375 Z M 5.640625 -3.328125 L 6.546875 -2.78125 C 8.253906 -1.757812 9.515625 -1.921875 10.328125 -3.265625 C 10.453125 -3.492188 10.546875 -3.785156 10.609375 -4.140625 C 10.742188 -4.867188 10.507812 -5.539062 9.90625 -6.15625 C 9.269531 -6.539062 8.59375 -6.835938 7.875 -7.046875 Z M 5.640625 -3.328125 "/></g></g></g><g fill="#d4917e" fill-opacity="1"><g transform="translate(243.931051, 111.70044)"><g><path d="M 1.171875 0.9375 L 8.078125 -7.625 L 13.25 -3.4375 L 12.421875 -2.671875 L 10.34375 -5 C 9.914062 -5.34375 9.390625 -5.644531 8.765625 -5.90625 L 6.234375 -2.78125 L 9.09375 -0.46875 L 8.703125 0.015625 L 5.84375 -2.296875 L 2.796875 1.484375 L 7.125 4.328125 L 6.296875 5.078125 Z M 1.171875 0.9375 "/></g></g></g><g fill="#d4917e" fill-opacity="1"><g transform="translate(253.688999, 119.908831)"><g><path d="M 1.03125 1.078125 L 8.96875 -6.53125 L 10.09375 -5.359375 L 2.796875 1.640625 C 3.117188 2.265625 3.421875 2.722656 3.703125 3.015625 L 6.15625 4.828125 L 5.234375 5.453125 Z M 1.03125 1.078125 "/></g></g></g><g fill="#d4917e" fill-opacity="1"><g transform="translate(261.52366, 128.3853)"><g><path d="M 0.90625 1.203125 L 9.703125 -5.390625 L 10.671875 -4.09375 L 2.59375 1.96875 C 2.832031 2.625 3.070312 3.113281 3.3125 3.4375 L 5.53125 5.53125 L 4.53125 6.046875 Z M 0.90625 1.203125 "/></g></g></g><g clip-path="url(#id2)"><path fill="#d4917e" d="M 283.398438 183.566406 C 281.328125 183.566406 279.648438 185.246094 279.648438 187.316406 C 279.648438 189.390625 281.328125 191.066406 283.398438 191.066406 C 285.46875 191.066406 287.148438 189.390625 287.148438 187.316406 C 287.148438 185.246094 285.46875 183.566406 283.398438 183.566406 " fill-opacity="1" fill-rule="nonzero"/></g><path fill="#d4917e" d="M 209.660156 218.886719 C 209.445312 218.886719 209.253906 218.730469 209.21875 218.507812 C 209.121094 217.902344 209.050781 217.289062 209.003906 216.6875 C 208.851562 214.800781 208.917969 213.0625 209.203125 211.660156 C 209.414062 210.609375 209.832031 209.613281 210.238281 208.648438 C 210.65625 207.652344 211.050781 206.71875 211.226562 205.738281 C 211.5 204.226562 211.21875 202.820312 210.921875 201.332031 C 210.558594 199.5 210.179688 197.605469 210.894531 195.484375 C 211.941406 192.363281 214.070312 189.304688 215.578125 187.277344 C 217.070312 185.269531 217.898438 183.894531 218.265625 181.949219 C 218.3125 181.707031 218.546875 181.546875 218.792969 181.59375 C 219.035156 181.640625 219.195312 181.875 219.148438 182.117188 C 218.75 184.222656 217.839844 185.742188 216.300781 187.8125 C 214.828125 189.792969 212.753906 192.769531 211.746094 195.769531 C 211.105469 197.664062 211.445312 199.359375 211.804688 201.15625 C 212.101562 202.660156 212.414062 204.21875 212.109375 205.898438 C 211.917969 206.976562 211.484375 208.003906 211.066406 208.996094 C 210.679688 209.917969 210.277344 210.875 210.082031 211.839844 C 209.816406 213.160156 209.753906 214.8125 209.902344 216.617188 C 209.945312 217.195312 210.011719 217.785156 210.105469 218.367188 C 210.144531 218.613281 209.976562 218.84375 209.730469 218.882812 C 209.707031 218.886719 209.683594 218.886719 209.660156 218.886719 " fill-opacity="1" fill-rule="nonzero"/><path fill="#d4917e" d="M 218.707031 182.476562 C 218.679688 182.476562 218.652344 182.472656 218.625 182.46875 C 218.378906 182.421875 218.21875 182.183594 218.265625 181.941406 C 218.328125 181.609375 218.382812 181.25 218.417969 180.867188 C 218.441406 180.621094 218.660156 180.441406 218.90625 180.464844 C 219.152344 180.488281 219.335938 180.707031 219.3125 180.953125 C 219.273438 181.363281 219.21875 181.75 219.148438 182.113281 C 219.105469 182.324219 218.917969 182.476562 218.707031 182.476562 " fill-opacity="1" fill-rule="nonzero"/><path fill="#d4917e" d="M 174.121094 209.746094 C 170.292969 209.746094 166.488281 209.28125 162.84375 208.351562 C 161.242188 207.941406 159.605469 207.582031 158.019531 207.230469 C 154.761719 206.515625 151.390625 205.773438 148.15625 204.566406 C 147.820312 204.441406 147.433594 204.304688 147.003906 204.152344 C 146.457031 203.957031 145.84375 203.738281 145.199219 203.496094 C 144.96875 203.410156 144.851562 203.152344 144.9375 202.917969 C 145.023438 202.6875 145.285156 202.566406 145.515625 202.65625 C 146.152344 202.894531 146.761719 203.109375 147.304688 203.304688 C 147.738281 203.460938 148.132812 203.601562 148.46875 203.726562 C 151.644531 204.910156 154.984375 205.644531 158.214844 206.355469 C 159.804688 206.703125 161.453125 207.066406 163.066406 207.480469 C 171.101562 209.535156 179.953125 209.265625 188 206.726562 C 188.925781 206.429688 189.839844 206.109375 190.710938 205.769531 C 190.945312 205.679688 191.203125 205.792969 191.292969 206.027344 C 191.382812 206.257812 191.269531 206.515625 191.039062 206.609375 C 190.144531 206.953125 189.214844 207.28125 188.273438 207.582031 C 183.714844 209.019531 178.902344 209.746094 174.121094 209.746094 " fill-opacity="1" fill-rule="nonzero"/><path fill="#d4917e" d="M 188.136719 207.601562 C 188.113281 207.601562 188.085938 207.601562 188.0625 207.597656 C 186.839844 207.394531 185.441406 207.027344 183.90625 206.507812 C 181.308594 205.636719 178.707031 204.464844 176.800781 203.609375 C 175.980469 203.238281 175.273438 202.921875 174.722656 202.695312 C 173.824219 202.328125 172.929688 201.921875 172.066406 201.53125 C 168.488281 199.910156 165.105469 198.378906 161.097656 199.089844 C 159.542969 199.363281 157.964844 199.804688 156.277344 200.429688 C 155.457031 200.730469 154.621094 201.074219 153.722656 201.476562 C 150.707031 202.816406 148.386719 203.40625 145.722656 203.515625 C 145.597656 203.519531 145.476562 203.523438 145.359375 203.523438 C 145.109375 203.523438 144.910156 203.324219 144.910156 203.074219 C 144.910156 202.828125 145.109375 202.625 145.359375 202.625 C 145.46875 202.625 145.578125 202.625 145.691406 202.621094 C 148.660156 202.496094 150.902344 201.746094 153.355469 200.65625 C 154.273438 200.246094 155.125 199.898438 155.964844 199.585938 C 157.707031 198.941406 159.332031 198.492188 160.941406 198.203125 C 165.226562 197.445312 168.890625 199.109375 172.4375 200.714844 C 173.292969 201.101562 174.179688 201.503906 175.0625 201.867188 C 175.625 202.097656 176.34375 202.417969 177.167969 202.789062 C 179.054688 203.636719 181.636719 204.800781 184.191406 205.65625 C 185.683594 206.160156 187.035156 206.515625 188.207031 206.710938 C 188.453125 206.75 188.617188 206.984375 188.578125 207.226562 C 188.542969 207.445312 188.351562 207.601562 188.136719 207.601562 " fill-opacity="1" fill-rule="nonzero"/><path fill="#d4917e" d="M 181.90625 198.996094 C 181.679688 198.996094 181.484375 198.824219 181.460938 198.597656 C 181.140625 195.773438 178.664062 191.585938 176.855469 188.527344 C 175.929688 186.960938 175.199219 185.726562 174.90625 184.949219 C 173.402344 180.980469 172.484375 177.628906 171.921875 174.074219 C 171.167969 169.335938 170.40625 165.648438 168.914062 161.90625 C 167.964844 159.515625 166.652344 157.164062 165.386719 154.890625 C 165.199219 154.554688 165.011719 154.21875 164.828125 153.886719 C 164.578125 153.433594 164.183594 152.867188 163.699219 152.175781 C 163.554688 151.972656 163.605469 151.695312 163.808594 151.550781 C 164.011719 151.40625 164.289062 151.457031 164.433594 151.660156 C 164.933594 152.375 165.339844 152.960938 165.613281 153.453125 C 165.796875 153.785156 165.984375 154.117188 166.167969 154.449219 C 167.453125 156.75 168.777344 159.128906 169.746094 161.574219 C 171.433594 165.804688 172.210938 170.171875 172.808594 173.933594 C 173.359375 177.425781 174.265625 180.722656 175.746094 184.628906 C 176.011719 185.335938 176.761719 186.601562 177.628906 188.066406 C 179.480469 191.195312 182.011719 195.480469 182.351562 198.496094 C 182.378906 198.742188 182.203125 198.964844 181.957031 198.992188 C 181.9375 198.996094 181.921875 198.996094 181.90625 198.996094 " fill-opacity="1" fill-rule="nonzero"/><path fill="#d4917e" d="M 182.46875 199.410156 C 182.339844 199.410156 182.214844 199.355469 182.125 199.25 C 181.964844 199.0625 181.988281 198.777344 182.175781 198.617188 C 182.988281 197.929688 183.28125 196.480469 183.050781 194.3125 C 182.8125 192.058594 182.074219 189.570312 181.53125 187.753906 C 181.34375 187.113281 181.175781 186.5625 181.078125 186.160156 C 180.691406 184.574219 180.472656 183.046875 180.261719 181.570312 C 179.863281 178.78125 179.484375 176.144531 178.023438 173.460938 L 177.65625 172.78125 C 176.085938 169.898438 174.601562 167.175781 172.910156 164.414062 C 172.902344 164.40625 172.898438 164.398438 172.894531 164.390625 C 172.535156 163.804688 172.179688 163.21875 171.824219 162.632812 C 170.335938 160.183594 168.796875 157.648438 167.050781 155.339844 C 166.246094 154.277344 165.1875 153.277344 163.804688 152.285156 C 163.601562 152.136719 163.554688 151.859375 163.703125 151.65625 C 163.847656 151.457031 164.125 151.410156 164.328125 151.554688 C 165.785156 152.601562 166.910156 153.660156 167.765625 154.796875 C 169.542969 157.144531 171.089844 159.695312 172.589844 162.167969 C 172.945312 162.753906 173.300781 163.335938 173.660156 163.917969 C 173.664062 163.929688 173.667969 163.9375 173.675781 163.945312 C 175.378906 166.726562 176.867188 169.460938 178.445312 172.351562 L 178.8125 173.03125 C 180.351562 175.859375 180.738281 178.570312 181.148438 181.441406 C 181.355469 182.898438 181.574219 184.402344 181.949219 185.945312 C 182.042969 186.328125 182.207031 186.871094 182.394531 187.5 C 182.910156 189.242188 183.695312 191.882812 183.945312 194.21875 C 184.210938 196.734375 183.824219 198.398438 182.757812 199.300781 C 182.675781 199.375 182.570312 199.410156 182.46875 199.410156 " fill-opacity="1" fill-rule="nonzero"/><path fill="#d4917e" d="M 160.761719 182.480469 C 160.621094 182.480469 160.484375 182.414062 160.398438 182.292969 C 160.082031 181.855469 159.769531 181.417969 159.460938 180.980469 C 157.894531 178.761719 156.414062 176.671875 154.234375 175.042969 C 153.421875 174.4375 152.636719 173.769531 151.878906 173.125 C 151.167969 172.515625 150.433594 171.890625 149.679688 171.320312 C 147.441406 169.628906 144.300781 168.726562 141.527344 167.933594 C 141.214844 167.84375 140.90625 167.757812 140.605469 167.667969 L 140.265625 167.566406 C 139.128906 167.226562 137.953125 166.878906 136.84375 167.1875 C 135.648438 167.523438 135.460938 168.085938 135.144531 169.007812 C 135.035156 169.335938 134.910156 169.703125 134.726562 170.089844 C 134.394531 170.777344 133.882812 171.226562 133.472656 171.539062 C 133.261719 171.703125 133.042969 171.855469 132.828125 172 C 131.984375 172.589844 131.253906 173.09375 131.070312 174.144531 C 130.957031 174.800781 131.191406 175.277344 131.46875 175.832031 C 131.703125 176.300781 131.941406 176.785156 131.980469 177.402344 C 132.011719 177.949219 131.84375 178.480469 131.683594 178.992188 C 131.550781 179.402344 131.429688 179.789062 131.429688 180.128906 C 131.425781 180.191406 131.429688 180.234375 131.433594 180.277344 C 131.460938 180.523438 131.28125 180.746094 131.035156 180.773438 C 130.789062 180.800781 130.566406 180.621094 130.542969 180.375 C 130.53125 180.277344 130.527344 180.183594 130.53125 180.097656 C 130.535156 179.648438 130.683594 179.175781 130.824219 178.722656 C 130.96875 178.265625 131.105469 177.835938 131.082031 177.457031 C 131.058594 177.023438 130.867188 176.636719 130.664062 176.230469 C 130.363281 175.625 130.019531 174.9375 130.1875 173.988281 C 130.433594 172.570312 131.433594 171.875 132.316406 171.265625 C 132.523438 171.121094 132.730469 170.976562 132.925781 170.828125 C 133.417969 170.449219 133.722656 170.105469 133.917969 169.703125 C 134.078125 169.363281 134.1875 169.039062 134.296875 168.71875 C 134.632812 167.726562 134.949219 166.789062 136.597656 166.324219 C 137.960938 165.941406 139.324219 166.347656 140.523438 166.707031 L 140.855469 166.804688 C 141.15625 166.894531 141.464844 166.980469 141.777344 167.070312 C 144.621094 167.886719 147.847656 168.808594 150.21875 170.601562 C 150.992188 171.1875 151.742188 171.824219 152.460938 172.441406 C 153.207031 173.078125 153.980469 173.734375 154.769531 174.320312 C 157.066406 176.035156 158.65625 178.285156 160.195312 180.460938 C 160.5 180.894531 160.808594 181.332031 161.125 181.765625 C 161.269531 181.96875 161.226562 182.246094 161.023438 182.394531 C 160.945312 182.453125 160.851562 182.480469 160.761719 182.480469 " fill-opacity="1" fill-rule="nonzero"/><path fill="#d4917e" d="M 159.402344 182.691406 C 159.167969 182.691406 158.96875 182.511719 158.953125 182.277344 C 158.9375 182.027344 159.121094 181.8125 159.367188 181.792969 C 159.46875 181.789062 159.566406 181.78125 159.660156 181.777344 C 160.046875 181.753906 160.347656 181.734375 160.5625 181.628906 C 160.78125 181.519531 161.070312 181.253906 161.382812 180.121094 C 161.539062 179.554688 161.65625 178.949219 161.746094 178.265625 C 161.90625 177.003906 161.933594 175.671875 161.960938 174.386719 C 161.976562 173.710938 161.988281 173.015625 162.023438 172.339844 C 162.046875 171.898438 162.070312 171.449219 162.09375 171 C 162.285156 167.566406 162.480469 164.011719 161.308594 160.746094 C 160.867188 159.523438 160.222656 158.441406 159.539062 157.300781 C 159.125 156.605469 158.695312 155.886719 158.320312 155.144531 C 157.277344 153.054688 156.683594 150.398438 156.65625 147.664062 C 156.65625 147.417969 156.851562 147.214844 157.101562 147.210938 C 157.351562 147.222656 157.550781 147.40625 157.554688 147.65625 C 157.582031 150.257812 158.140625 152.773438 159.125 154.742188 C 159.484375 155.457031 159.902344 156.160156 160.308594 156.839844 C 160.984375 157.96875 161.683594 159.136719 162.152344 160.441406 C 163.386719 163.878906 163.183594 167.523438 162.992188 171.050781 C 162.964844 171.496094 162.941406 171.941406 162.917969 172.386719 C 162.886719 173.046875 162.871094 173.738281 162.859375 174.402344 C 162.832031 175.714844 162.804688 177.066406 162.636719 178.382812 C 162.542969 179.109375 162.414062 179.753906 162.25 180.359375 C 161.921875 181.546875 161.546875 182.144531 160.957031 182.433594 C 160.585938 182.621094 160.183594 182.644531 159.714844 182.671875 C 159.625 182.679688 159.53125 182.683594 159.433594 182.691406 C 159.421875 182.691406 159.410156 182.691406 159.402344 182.691406 " fill-opacity="1" fill-rule="nonzero"/><path fill="#d4917e" d="M 143.523438 190.175781 C 141.019531 190.175781 138.230469 189.59375 136.050781 188.816406 C 132.222656 187.449219 129.636719 184.472656 127.8125 182.03125 C 127.664062 181.832031 127.703125 181.550781 127.902344 181.402344 C 128.097656 181.253906 128.382812 181.292969 128.527344 181.492188 C 130.390625 183.976562 132.773438 186.691406 136.355469 187.972656 C 139.363281 189.042969 143.867188 189.777344 146.640625 188.847656 C 148.550781 188.207031 150.21875 186.882812 151.832031 185.597656 C 153.375 184.371094 154.96875 183.101562 156.820312 182.375 C 157.25 182.207031 157.675781 182.074219 158.089844 181.976562 C 158.5625 181.863281 158.980469 181.824219 159.363281 181.792969 C 159.613281 181.78125 159.828125 181.960938 159.84375 182.210938 C 159.863281 182.457031 159.675781 182.671875 159.429688 182.691406 C 159.109375 182.714844 158.726562 182.75 158.292969 182.851562 C 157.921875 182.9375 157.535156 183.058594 157.148438 183.210938 C 155.421875 183.890625 153.882812 185.113281 152.390625 186.300781 C 150.714844 187.632812 148.984375 189.011719 146.921875 189.699219 C 145.933594 190.03125 144.761719 190.175781 143.523438 190.175781 " fill-opacity="1" fill-rule="nonzero"/><path fill="#d4917e" d="M 162.191406 178.773438 C 162.058594 178.773438 161.925781 178.714844 161.839844 178.601562 C 161.425781 178.074219 160.996094 177.550781 160.566406 177.019531 C 158.304688 174.242188 155.964844 171.371094 155.503906 167.996094 C 155.195312 165.765625 154.414062 163.765625 153.585938 161.648438 C 153.164062 160.5625 152.722656 159.4375 152.351562 158.277344 C 151.304688 155.007812 151.765625 152.046875 153.640625 149.9375 C 153.664062 149.90625 153.691406 149.875 153.71875 149.847656 C 154.410156 149.089844 155.203125 148.511719 155.96875 147.949219 C 156.261719 147.738281 156.550781 147.527344 156.828125 147.308594 C 157.023438 147.152344 157.308594 147.1875 157.457031 147.382812 C 157.613281 147.578125 157.578125 147.863281 157.382812 148.015625 C 157.09375 148.238281 156.796875 148.457031 156.5 148.675781 C 155.765625 149.210938 155.011719 149.761719 154.367188 150.46875 L 154.347656 150.492188 C 154.34375 150.496094 154.324219 150.523438 154.320312 150.523438 C 152.074219 153.046875 152.660156 156.292969 153.207031 158.003906 C 153.570312 159.136719 154.003906 160.246094 154.421875 161.320312 C 155.234375 163.394531 156.070312 165.535156 156.390625 167.875 C 156.820312 171 159.078125 173.769531 161.261719 176.453125 C 161.695312 176.984375 162.128906 177.515625 162.546875 178.046875 C 162.695312 178.242188 162.664062 178.523438 162.46875 178.679688 C 162.386719 178.742188 162.289062 178.773438 162.191406 178.773438 " fill-opacity="1" fill-rule="nonzero"/><path fill="#d4917e" d="M 156.984375 183.242188 C 156.925781 183.242188 156.867188 183.230469 156.8125 183.210938 C 155.617188 182.714844 154.445312 182.132812 153.308594 181.566406 C 150.375 180.105469 147.605469 178.726562 144.40625 178.726562 C 144.359375 178.726562 144.308594 178.726562 144.261719 178.726562 C 143.628906 178.726562 143.007812 178.714844 142.40625 178.699219 C 140.238281 178.65625 138.195312 178.617188 136.039062 179.15625 C 134.414062 179.5625 132.964844 180.054688 131.476562 180.699219 C 130.722656 181.019531 129.917969 181.398438 128.953125 181.890625 C 128.734375 182 128.535156 182.09375 128.34375 182.175781 C 128.113281 182.269531 127.851562 182.164062 127.757812 181.9375 C 127.660156 181.707031 127.765625 181.445312 127.996094 181.347656 C 128.167969 181.277344 128.347656 181.191406 128.546875 181.089844 C 129.53125 180.589844 130.347656 180.203125 131.125 179.871094 C 132.65625 179.210938 134.148438 178.703125 135.820312 178.285156 C 138.09375 177.714844 140.195312 177.757812 142.421875 177.800781 C 143.058594 177.816406 143.714844 177.828125 144.375 177.828125 C 144.386719 177.828125 144.394531 177.828125 144.40625 177.828125 C 147.816406 177.828125 150.8125 179.320312 153.710938 180.761719 C 154.828125 181.320312 155.988281 181.898438 157.152344 182.378906 C 157.382812 182.472656 157.492188 182.738281 157.398438 182.964844 C 157.328125 183.136719 157.160156 183.242188 156.984375 183.242188 " fill-opacity="1" fill-rule="nonzero"/><path fill="#d4917e" d="M 133.199219 171.632812 C 132.96875 171.632812 132.773438 171.457031 132.753906 171.222656 C 132.710938 170.78125 132.621094 170.414062 132.449219 170.03125 C 132.3125 169.722656 132.101562 169.480469 131.878906 169.222656 C 131.421875 168.695312 130.90625 168.097656 131.085938 166.972656 C 131.195312 166.316406 131.59375 165.796875 131.984375 165.292969 C 132.242188 164.957031 132.488281 164.640625 132.621094 164.3125 C 132.941406 163.496094 132.941406 162.726562 132.941406 161.835938 C 132.941406 161.613281 132.941406 161.390625 132.949219 161.160156 C 132.949219 161.03125 132.953125 160.894531 132.960938 160.753906 C 133.066406 158.632812 133.78125 157.007812 135.078125 155.933594 C 136.753906 154.554688 139.359375 154.101562 142.832031 154.589844 C 143.078125 154.625 143.246094 154.851562 143.210938 155.097656 C 143.179688 155.34375 142.953125 155.511719 142.703125 155.480469 C 139.496094 155.027344 137.121094 155.414062 135.652344 156.628906 C 134.554688 157.535156 133.949219 158.9375 133.855469 160.804688 C 133.851562 160.925781 133.847656 161.050781 133.847656 161.167969 C 133.839844 161.402344 133.839844 161.621094 133.839844 161.835938 C 133.839844 162.777344 133.839844 163.667969 133.453125 164.644531 C 133.273438 165.089844 132.980469 165.472656 132.695312 165.84375 C 132.359375 166.277344 132.042969 166.683594 131.972656 167.121094 C 131.859375 167.828125 132.152344 168.164062 132.554688 168.632812 C 132.800781 168.914062 133.078125 169.234375 133.269531 169.664062 C 133.476562 170.136719 133.597656 170.605469 133.648438 171.140625 C 133.667969 171.386719 133.488281 171.605469 133.238281 171.628906 C 133.226562 171.628906 133.214844 171.632812 133.199219 171.632812 " fill-opacity="1" fill-rule="nonzero"/><path fill="#d4917e" d="M 154.5 175.132812 C 154.308594 175.132812 154.128906 175.003906 154.070312 174.808594 C 153.925781 174.320312 153.789062 173.832031 153.648438 173.34375 C 152.828125 170.464844 152.054688 167.746094 150.191406 165.304688 C 149.878906 164.890625 149.253906 164.210938 148.527344 163.429688 C 146.496094 161.230469 143.429688 157.902344 142.351562 155.199219 C 141.835938 153.90625 141.816406 152.84375 142.289062 152.03125 C 142.785156 151.175781 143.824219 150.636719 145.371094 150.421875 C 145.757812 150.371094 146.148438 150.394531 146.523438 150.421875 C 147.046875 150.457031 147.542969 150.492188 147.921875 150.304688 C 148.351562 150.089844 148.609375 149.730469 148.882812 149.351562 C 149.277344 148.808594 149.722656 148.1875 150.691406 148.09375 C 151.902344 147.972656 152.882812 148.773438 153.75 149.484375 C 153.917969 149.621094 154.085938 149.753906 154.246094 149.878906 C 154.445312 150.03125 154.484375 150.3125 154.332031 150.507812 C 154.183594 150.707031 153.902344 150.746094 153.703125 150.59375 C 153.53125 150.464844 153.359375 150.320312 153.183594 150.179688 C 152.417969 149.550781 151.621094 148.90625 150.777344 148.988281 C 150.238281 149.039062 149.996094 149.34375 149.613281 149.878906 C 149.300781 150.308594 148.949219 150.792969 148.324219 151.109375 C 147.726562 151.40625 147.082031 151.359375 146.460938 151.320312 C 146.117188 151.292969 145.785156 151.273438 145.492188 151.3125 C 144.234375 151.484375 143.414062 151.878906 143.0625 152.484375 C 142.738281 153.042969 142.777344 153.847656 143.183594 154.867188 C 144.199219 157.417969 147.203125 160.667969 149.1875 162.820312 C 149.957031 163.652344 150.566406 164.3125 150.90625 164.757812 C 152.871094 167.335938 153.703125 170.265625 154.511719 173.097656 C 154.648438 173.585938 154.789062 174.070312 154.933594 174.554688 C 155 174.792969 154.867188 175.042969 154.628906 175.113281 C 154.585938 175.125 154.542969 175.132812 154.5 175.132812 " fill-opacity="1" fill-rule="nonzero"/><path fill="#d4917e" d="M 131.300781 180.734375 C 131.234375 180.734375 131.167969 180.71875 131.105469 180.691406 C 131.03125 180.65625 130.957031 180.617188 130.882812 180.578125 L 130.667969 180.472656 C 129.902344 180.089844 129.113281 179.695312 128.460938 179.140625 C 126.542969 177.507812 127.042969 176.21875 127.574219 174.851562 C 127.699219 174.523438 127.828125 174.183594 127.941406 173.816406 C 128.257812 172.773438 127.984375 172.09375 127.664062 171.304688 C 127.375 170.597656 127.046875 169.796875 127.1875 168.707031 C 127.65625 165.074219 130.503906 162.722656 133.132812 160.804688 C 133.332031 160.660156 133.613281 160.703125 133.761719 160.902344 C 133.90625 161.101562 133.863281 161.382812 133.660156 161.53125 C 131.066406 163.421875 128.5 165.542969 128.078125 168.824219 C 127.96875 169.675781 128.222656 170.300781 128.492188 170.964844 C 128.828125 171.792969 129.210938 172.730469 128.800781 174.078125 C 128.679688 174.476562 128.542969 174.832031 128.410156 175.175781 C 127.894531 176.503906 127.609375 177.238281 129.042969 178.457031 C 129.613281 178.941406 130.320312 179.292969 131.070312 179.667969 L 131.289062 179.777344 C 131.355469 179.8125 131.425781 179.847656 131.496094 179.882812 C 131.71875 179.988281 131.8125 180.257812 131.703125 180.480469 C 131.625 180.640625 131.464844 180.734375 131.300781 180.734375 " fill-opacity="1" fill-rule="nonzero"/><path fill="#d4917e" d="M 207.101562 225.21875 C 206.949219 225.21875 206.800781 225.140625 206.714844 225 C 206.703125 224.980469 206.691406 224.957031 206.675781 224.941406 C 206.667969 224.929688 206.660156 224.921875 206.65625 224.910156 C 205.792969 223.585938 204.765625 222.03125 203.695312 220.503906 C 201.582031 217.5 199.097656 215.011719 196.464844 212.375 C 195.988281 211.894531 195.507812 211.414062 195.03125 210.929688 C 193.757812 209.640625 192.628906 208.515625 191.574219 207.488281 C 191.238281 207.160156 190.902344 206.835938 190.566406 206.511719 C 187.511719 203.585938 184.855469 201.300781 182.199219 199.320312 C 182.015625 199.179688 181.832031 199.042969 181.648438 198.914062 C 181.46875 198.777344 181.300781 198.652344 181.128906 198.535156 C 179.9375 197.679688 178.6875 196.882812 177.476562 196.113281 C 175.925781 195.121094 174.320312 194.097656 172.816406 192.945312 C 171.910156 192.246094 171.007812 191.511719 170.132812 190.800781 C 168.105469 189.148438 166.011719 187.441406 163.734375 186.121094 C 163.039062 185.71875 162.199219 185.03125 161.308594 184.304688 C 160.605469 183.726562 159.878906 183.132812 159.15625 182.621094 C 159.03125 182.539062 158.949219 182.402344 158.949219 182.242188 C 158.949219 181.996094 159.148438 181.792969 159.398438 181.792969 L 159.402344 181.792969 C 159.492188 181.792969 159.585938 181.824219 159.660156 181.875 C 160.414062 182.410156 161.15625 183.019531 161.878906 183.609375 C 162.738281 184.3125 163.554688 184.976562 164.183594 185.34375 C 166.523438 186.699219 168.644531 188.429688 170.699219 190.101562 C 171.570312 190.8125 172.46875 191.542969 173.363281 192.234375 C 174.835938 193.363281 176.421875 194.375 177.960938 195.355469 C 179.179688 196.132812 180.441406 196.9375 181.648438 197.800781 C 181.824219 197.925781 182 198.054688 182.175781 198.1875 C 182.359375 198.316406 182.550781 198.457031 182.738281 198.601562 C 185.421875 200.601562 188.105469 202.910156 191.1875 205.863281 C 191.523438 206.191406 191.863281 206.515625 192.203125 206.84375 C 193.257812 207.875 194.394531 209.003906 195.667969 210.296875 C 196.144531 210.78125 196.625 211.261719 197.101562 211.738281 C 199.761719 214.40625 202.273438 216.921875 204.429688 219.988281 C 205.503906 221.519531 206.535156 223.078125 207.398438 224.40625 C 207.429688 224.449219 207.457031 224.492188 207.484375 224.539062 C 207.613281 224.75 207.542969 225.027344 207.332031 225.15625 C 207.257812 225.199219 207.179688 225.21875 207.101562 225.21875 " fill-opacity="1" fill-rule="nonzero"/><path fill="#d4917e" d="M 207.414062 224.898438 Z M 207.382812 224.9375 Z M 207.03125 225.113281 C 206.9375 225.113281 206.84375 225.085938 206.761719 225.027344 C 206.566406 224.878906 206.523438 224.601562 206.667969 224.402344 C 206.679688 224.382812 206.691406 224.363281 206.707031 224.347656 C 207.4375 223.253906 208.289062 221.21875 209.234375 218.300781 C 209.535156 217.375 209.832031 216.398438 210.125 215.390625 C 210.476562 214.195312 210.785156 213.078125 211.0625 212.097656 C 211.417969 210.816406 211.675781 209.894531 211.839844 209.4375 C 212.746094 206.9375 213.96875 204.800781 215.261719 202.535156 C 215.652344 201.847656 216.046875 201.15625 216.4375 200.445312 C 217.484375 198.53125 217.652344 196.285156 217.816406 194.113281 C 217.847656 193.695312 217.878906 193.277344 217.914062 192.863281 C 218.1875 189.808594 218.472656 185.820312 218.261719 182.058594 C 218.257812 182.050781 218.257812 182.039062 218.257812 182.03125 C 218.257812 181.917969 218.300781 181.804688 218.382812 181.714844 C 218.554688 181.535156 218.839844 181.53125 219.019531 181.703125 C 219.105469 181.785156 219.15625 181.90625 219.160156 182.027344 C 219.160156 182.03125 219.160156 182.039062 219.15625 182.046875 C 219.367188 185.855469 219.082031 189.867188 218.808594 192.941406 C 218.773438 193.351562 218.742188 193.765625 218.710938 194.179688 C 218.542969 196.445312 218.367188 198.789062 217.222656 200.878906 C 216.832031 201.59375 216.429688 202.300781 216.039062 202.980469 C 214.765625 205.210938 213.566406 207.316406 212.683594 209.746094 C 212.53125 210.167969 212.265625 211.125 211.925781 212.335938 C 211.648438 213.324219 211.339844 214.441406 210.988281 215.644531 C 210.691406 216.65625 210.390625 217.644531 210.085938 218.578125 C 209.09375 221.640625 208.226562 223.695312 207.4375 224.871094 C 207.425781 224.886719 207.417969 224.898438 207.40625 224.910156 C 207.398438 224.921875 207.390625 224.929688 207.390625 224.933594 C 207.300781 225.050781 207.167969 225.113281 207.03125 225.113281 " fill-opacity="1" fill-rule="nonzero"/><path fill="#d4917e" d="M 201.207031 192.214844 C 201.082031 192.214844 200.957031 192.160156 200.871094 192.058594 C 200.011719 191.082031 198.953125 190.125 197.441406 188.953125 C 196.78125 188.441406 196.089844 187.9375 195.421875 187.445312 C 194.191406 186.542969 192.921875 185.605469 191.796875 184.621094 C 189.179688 182.324219 186.273438 179.578125 184.890625 176.015625 C 184.421875 174.808594 184.050781 173.609375 183.695312 172.453125 C 182.945312 170.03125 182.238281 167.742188 180.734375 165.523438 C 180.121094 164.617188 179.34375 163.703125 178.296875 162.652344 C 178.125 162.476562 178.125 162.191406 178.300781 162.015625 C 178.476562 161.839844 178.757812 161.839844 178.933594 162.019531 C 180.019531 163.109375 180.828125 164.066406 181.476562 165.019531 C 183.054688 167.347656 183.78125 169.699219 184.550781 172.1875 C 184.90625 173.332031 185.269531 174.511719 185.726562 175.691406 C 187.035156 179.0625 189.851562 181.71875 192.386719 183.945312 C 193.484375 184.90625 194.738281 185.828125 195.953125 186.722656 C 196.625 187.214844 197.320312 187.726562 197.988281 188.242188 C 199.550781 189.449219 200.644531 190.445312 201.542969 191.46875 C 201.707031 191.65625 201.691406 191.9375 201.503906 192.101562 C 201.417969 192.175781 201.3125 192.214844 201.207031 192.214844 " fill-opacity="1" fill-rule="nonzero"/><path fill="#d4917e" d="M 200.503906 185.15625 C 200.351562 185.15625 200.203125 185.078125 200.121094 184.941406 C 197.117188 180.019531 193.328125 175.25 189.167969 171.140625 C 187.71875 169.714844 186.246094 168.382812 184.792969 167.183594 C 183.167969 165.84375 181.527344 164.640625 179.925781 163.597656 C 179.464844 163.300781 178.921875 163.003906 178.40625 162.730469 C 178.1875 162.617188 178.101562 162.34375 178.21875 162.125 C 178.335938 161.90625 178.605469 161.820312 178.824219 161.9375 C 179.359375 162.21875 179.921875 162.527344 180.414062 162.84375 C 182.046875 163.902344 183.710938 165.128906 185.363281 166.492188 C 186.835938 167.707031 188.332031 169.054688 189.800781 170.5 C 194.011719 174.660156 197.84375 179.492188 200.886719 184.472656 C 201.015625 184.683594 200.949219 184.960938 200.738281 185.089844 C 200.664062 185.136719 200.582031 185.15625 200.503906 185.15625 " fill-opacity="1" fill-rule="nonzero"/><path fill="#d4917e" d="M 207.546875 125.097656 C 207.492188 125.097656 207.433594 125.085938 207.375 125.0625 C 207.144531 124.964844 207.039062 124.703125 207.136719 124.472656 C 207.308594 124.058594 207.480469 123.59375 207.691406 122.953125 C 207.851562 122.476562 207.984375 121.96875 208.113281 121.472656 C 208.566406 119.75 209.03125 117.96875 210.710938 116.902344 C 212.335938 115.867188 214.035156 115.585938 215.765625 116.0625 C 218.363281 116.78125 220.960938 119.296875 222.714844 122.792969 C 222.828125 123.015625 222.738281 123.285156 222.515625 123.398438 C 222.292969 123.507812 222.023438 123.417969 221.914062 123.199219 C 220.269531 119.925781 217.882812 117.582031 215.527344 116.929688 C 214.054688 116.519531 212.59375 116.769531 211.191406 117.660156 C 209.8125 118.535156 209.410156 120.074219 208.984375 121.703125 C 208.851562 122.210938 208.714844 122.734375 208.542969 123.238281 C 208.324219 123.898438 208.144531 124.386719 207.960938 124.820312 C 207.890625 124.992188 207.722656 125.097656 207.546875 125.097656 " fill-opacity="1" fill-rule="nonzero"/><path fill="#d4917e" d="M 206.347656 146.71875 C 206.246094 146.71875 206.144531 146.683594 206.058594 146.613281 C 205.871094 146.453125 205.847656 146.167969 206.007812 145.980469 C 207.042969 144.757812 208.039062 143.46875 209.007812 142.21875 C 209.84375 141.140625 210.710938 140.019531 211.605469 138.9375 C 212.015625 138.445312 212.421875 137.917969 212.8125 137.40625 C 213.464844 136.566406 214.136719 135.691406 214.859375 134.910156 C 215.375 134.347656 215.964844 133.871094 216.535156 133.410156 C 217.339844 132.761719 218.101562 132.148438 218.65625 131.328125 C 219.996094 129.332031 220.636719 127.121094 221.3125 124.78125 C 221.484375 124.1875 221.664062 123.570312 221.851562 122.964844 C 221.863281 122.929688 221.875 122.890625 221.890625 122.851562 C 222.359375 121.410156 223.082031 120.574219 224.039062 120.371094 C 224.917969 120.179688 225.9375 120.527344 227.164062 121.433594 C 227.527344 121.703125 227.8125 121.890625 228.089844 122.042969 C 228.304688 122.164062 228.382812 122.4375 228.261719 122.65625 C 228.140625 122.871094 227.867188 122.949219 227.652344 122.828125 C 227.339844 122.65625 227.023438 122.449219 226.628906 122.15625 C 225.640625 121.421875 224.832031 121.117188 224.230469 121.25 C 223.605469 121.382812 223.105469 122.015625 222.742188 123.132812 C 222.730469 123.167969 222.71875 123.199219 222.710938 123.226562 C 222.523438 123.832031 222.347656 124.433594 222.175781 125.03125 C 221.507812 127.335938 220.820312 129.714844 219.402344 131.828125 C 218.769531 132.761719 217.921875 133.449219 217.101562 134.109375 C 216.53125 134.570312 215.992188 135.003906 215.519531 135.515625 C 214.824219 136.273438 214.164062 137.128906 213.523438 137.957031 C 213.125 138.472656 212.714844 139.003906 212.300781 139.511719 C 211.410156 140.582031 210.550781 141.695312 209.714844 142.769531 C 208.746094 144.023438 207.738281 145.324219 206.691406 146.558594 C 206.601562 146.664062 206.476562 146.71875 206.347656 146.71875 " fill-opacity="1" fill-rule="nonzero"/><path fill="#d4917e" d="M 201.09375 147.804688 C 200.859375 147.804688 200.664062 147.621094 200.648438 147.382812 C 200.464844 144.550781 199.410156 141.875 197.125 138.445312 C 195.519531 136.023438 193.875 133.015625 193.878906 129.054688 C 193.878906 127.785156 194.078125 126.597656 194.273438 125.453125 C 194.40625 124.65625 194.542969 123.828125 194.613281 122.992188 C 194.796875 120.660156 194.394531 118.691406 193.351562 116.792969 C 192.898438 115.972656 192.320312 115.164062 191.585938 114.316406 C 191.277344 113.957031 190.949219 113.597656 190.609375 113.25 C 190.4375 113.074219 190.4375 112.789062 190.617188 112.617188 C 190.792969 112.441406 191.078125 112.445312 191.25 112.625 C 191.605469 112.984375 191.945312 113.355469 192.265625 113.730469 C 193.039062 114.621094 193.652344 115.484375 194.136719 116.359375 C 195.253906 118.390625 195.703125 120.582031 195.507812 123.0625 C 195.4375 123.941406 195.292969 124.785156 195.15625 125.601562 C 194.960938 126.761719 194.777344 127.859375 194.777344 129.058594 C 194.773438 132.054688 195.671875 134.628906 197.875 137.945312 C 199.550781 140.464844 201.300781 143.550781 201.542969 147.324219 C 201.558594 147.574219 201.371094 147.785156 201.125 147.804688 C 201.113281 147.804688 201.105469 147.804688 201.09375 147.804688 " fill-opacity="1" fill-rule="nonzero"/><path fill="#d4917e" d="M 201.882812 148.421875 C 201.792969 148.421875 201.703125 148.394531 201.625 148.339844 C 201.574219 148.304688 201.523438 148.269531 201.476562 148.230469 L 201.421875 148.1875 C 201.339844 148.128906 201.257812 148.066406 201.179688 148 C 201.054688 147.902344 200.929688 147.800781 200.804688 147.699219 C 198.574219 145.855469 196.507812 143.417969 194.960938 141.5 C 193.996094 140.304688 192.796875 138.816406 192.105469 137.261719 C 191.074219 134.949219 190.667969 132.011719 190.339844 129.648438 C 189.980469 127.058594 190.046875 124.320312 190.109375 121.671875 C 190.128906 120.898438 190.148438 120.132812 190.152344 119.375 C 190.160156 118.578125 190.238281 117.730469 190.320312 116.832031 C 190.386719 116.109375 190.453125 115.363281 190.484375 114.628906 C 190.515625 114.015625 190.515625 113.472656 190.480469 112.96875 C 190.464844 112.71875 190.652344 112.503906 190.902344 112.488281 C 191.144531 112.472656 191.363281 112.660156 191.378906 112.90625 C 191.414062 113.449219 191.414062 114.027344 191.382812 114.671875 C 191.351562 115.421875 191.28125 116.179688 191.214844 116.914062 C 191.136719 117.792969 191.058594 118.625 191.050781 119.382812 C 191.042969 120.144531 191.027344 120.917969 191.007812 121.695312 C 190.945312 124.304688 190.878906 127.007812 191.230469 129.527344 C 191.546875 131.832031 191.945312 134.699219 192.921875 136.898438 C 193.570312 138.34375 194.726562 139.78125 195.65625 140.9375 C 197.179688 142.820312 199.207031 145.214844 201.382812 147.007812 C 201.5 147.109375 201.617188 147.203125 201.738281 147.296875 C 201.816406 147.359375 201.890625 147.417969 201.964844 147.472656 L 202.027344 147.523438 C 202.066406 147.550781 202.101562 147.578125 202.140625 147.605469 C 202.34375 147.75 202.390625 148.03125 202.25 148.230469 C 202.160156 148.355469 202.023438 148.421875 201.882812 148.421875 " fill-opacity="1" fill-rule="nonzero"/><path fill="#d4917e" d="M 224.132812 121.257812 C 223.976562 121.257812 223.820312 121.175781 223.738281 121.027344 C 221.769531 117.457031 218.632812 112.585938 214.144531 111.507812 C 213.34375 111.3125 212.574219 111.457031 211.757812 111.609375 C 211.128906 111.726562 210.476562 111.851562 209.789062 111.8125 C 208.765625 111.757812 208.027344 111.332031 207.3125 110.921875 C 206.859375 110.660156 206.429688 110.414062 205.914062 110.246094 C 203.910156 109.589844 201.953125 110.085938 199.878906 110.613281 L 199.484375 110.714844 C 196.925781 111.355469 194.621094 112.832031 192.394531 114.253906 L 192.167969 114.402344 C 191.957031 114.535156 191.679688 114.472656 191.546875 114.265625 C 191.414062 114.054688 191.472656 113.777344 191.683594 113.644531 L 191.910156 113.5 C 194.199219 112.035156 196.566406 110.523438 199.265625 109.84375 L 199.660156 109.742188 C 201.765625 109.207031 203.941406 108.65625 206.195312 109.394531 C 206.796875 109.589844 207.285156 109.871094 207.757812 110.144531 C 208.441406 110.535156 209.027344 110.871094 209.835938 110.914062 C 210.414062 110.949219 210.988281 110.839844 211.59375 110.726562 C 212.464844 110.5625 213.367188 110.394531 214.351562 110.632812 C 219.183594 111.792969 222.472656 116.875 224.527344 120.59375 C 224.644531 120.8125 224.566406 121.085938 224.347656 121.203125 C 224.28125 121.242188 224.207031 121.257812 224.132812 121.257812 " fill-opacity="1" fill-rule="nonzero"/><g clip-path="url(#id3)"><path fill="#d4917e" d="M 201.695312 148.28125 C 201.476562 148.28125 201.285156 148.121094 201.25 147.898438 C 201.214844 147.652344 201.382812 147.425781 201.628906 147.386719 C 201.6875 147.378906 201.75 147.367188 201.808594 147.351562 C 203.515625 147.011719 205.113281 146.355469 206.15625 145.863281 C 207.035156 145.453125 207.890625 144.980469 208.566406 144.535156 C 210.125 143.507812 211.796875 142.824219 213.410156 142.160156 C 214.882812 141.554688 216.402344 140.933594 217.792969 140.058594 C 219.902344 138.734375 220.972656 136.671875 222.109375 134.484375 C 222.667969 133.414062 223.246094 132.304688 223.957031 131.285156 C 224.453125 130.570312 224.996094 129.84375 225.523438 129.140625 C 226.328125 128.0625 227.160156 126.949219 227.855469 125.851562 C 228.523438 124.792969 228.523438 124.792969 228.039062 123.820312 L 227.871094 123.476562 C 227.726562 123.179688 227.589844 122.898438 227.464844 122.628906 C 227.359375 122.40625 227.453125 122.136719 227.679688 122.03125 C 227.902344 121.925781 228.171875 122.019531 228.273438 122.246094 C 228.402344 122.511719 228.535156 122.789062 228.679688 123.085938 L 228.84375 123.421875 C 229.472656 124.6875 229.496094 124.929688 228.613281 126.328125 C 227.898438 127.460938 227.058594 128.585938 226.242188 129.675781 C 225.722656 130.375 225.183594 131.097656 224.691406 131.800781 C 224.015625 132.769531 223.449219 133.855469 222.90625 134.898438 C 221.765625 137.09375 220.585938 139.367188 218.269531 140.820312 C 216.816406 141.734375 215.257812 142.375 213.75 142.992188 C 212.175781 143.636719 210.546875 144.304688 209.0625 145.285156 C 208.347656 145.753906 207.453125 146.25 206.539062 146.675781 C 205.449219 147.1875 203.78125 147.875 202.007812 148.226562 C 201.9375 148.246094 201.851562 148.261719 201.761719 148.277344 C 201.738281 148.277344 201.714844 148.28125 201.695312 148.28125 " fill-opacity="1" fill-rule="nonzero"/></g><path fill="#d4917e" d="M 201.460938 148.097656 C 201.351562 148.097656 201.246094 148.058594 201.160156 147.980469 C 200.976562 147.816406 200.960938 147.53125 201.128906 147.347656 C 201.339844 147.113281 201.546875 146.871094 201.742188 146.625 C 204.476562 143.226562 206.476562 138.074219 206.964844 133.175781 C 207.253906 130.238281 207.480469 127.382812 207.105469 124.710938 C 206.671875 121.605469 205.496094 119.210938 203.398438 117.171875 C 201.886719 115.699219 199.269531 115.222656 197.472656 115.507812 C 196.972656 115.589844 196.265625 115.925781 195.515625 116.285156 C 194.980469 116.539062 194.429688 116.800781 193.898438 116.996094 C 193.664062 117.082031 193.40625 116.964844 193.320312 116.730469 C 193.238281 116.496094 193.355469 116.242188 193.589844 116.152344 C 194.082031 115.972656 194.613281 115.71875 195.128906 115.472656 C 195.9375 115.089844 196.703125 114.722656 197.332031 114.621094 C 199.289062 114.308594 202.21875 114.769531 204.023438 116.527344 C 206.242188 118.683594 207.539062 121.316406 207.992188 124.585938 C 208.382812 127.355469 208.152344 130.273438 207.859375 133.261719 C 207.347656 138.402344 205.324219 143.605469 202.441406 147.1875 C 202.238281 147.445312 202.015625 147.703125 201.792969 147.949219 C 201.703125 148.046875 201.582031 148.097656 201.460938 148.097656 " fill-opacity="1" fill-rule="nonzero"/><g clip-path="url(#id4)"><path fill="#d4917e" d="M 223.765625 258.507812 C 223.625 258.507812 223.484375 258.441406 223.398438 258.316406 C 218.390625 251.191406 214.535156 244.683594 211.613281 238.421875 C 209.945312 234.851562 208.558594 231.296875 207.496094 227.855469 C 207.203125 226.90625 206.929688 225.933594 206.667969 224.878906 C 206.65625 224.847656 206.644531 224.792969 206.632812 224.742188 C 205.625 220.703125 204.988281 216.535156 204.375 212.503906 C 203.835938 208.964844 203.277344 205.308594 202.476562 201.785156 C 201.773438 198.707031 201.214844 195.449219 200.761719 191.820312 C 200.488281 189.609375 200.257812 187.296875 200.054688 184.742188 C 199.808594 181.714844 199.617188 178.617188 199.433594 175.625 L 199.324219 173.816406 C 198.988281 168.367188 199.539062 162.882812 200.070312 157.574219 L 200.199219 156.25 C 200.371094 154.523438 200.652344 152.777344 200.925781 151.082031 C 201.050781 150.3125 201.175781 149.539062 201.289062 148.765625 C 201.316406 148.558594 201.359375 148.332031 201.402344 148.089844 L 201.441406 147.894531 C 201.457031 147.816406 201.464844 147.761719 201.476562 147.710938 C 201.519531 147.464844 201.75 147.300781 201.996094 147.347656 C 202.238281 147.386719 202.402344 147.621094 202.359375 147.863281 C 202.347656 147.9375 202.332031 148.011719 202.316406 148.082031 L 202.285156 148.25 C 202.246094 148.480469 202.207031 148.695312 202.175781 148.894531 C 202.0625 149.675781 201.9375 150.449219 201.8125 151.226562 C 201.542969 152.90625 201.261719 154.640625 201.09375 156.339844 L 200.960938 157.664062 C 200.433594 162.933594 199.886719 168.382812 200.21875 173.757812 L 200.332031 175.570312 C 200.515625 178.558594 200.703125 181.648438 200.949219 184.671875 C 201.152344 187.210938 201.378906 189.511719 201.652344 191.710938 C 202.101562 195.308594 202.65625 198.535156 203.351562 201.585938 C 204.160156 205.140625 204.71875 208.816406 205.261719 212.367188 C 205.871094 216.378906 206.503906 220.527344 207.5 224.511719 C 207.5 224.515625 207.503906 224.539062 207.507812 224.542969 C 207.515625 224.574219 207.519531 224.605469 207.53125 224.636719 C 207.796875 225.695312 208.066406 226.65625 208.355469 227.589844 C 209.40625 230.992188 210.773438 234.507812 212.425781 238.042969 C 215.324219 244.257812 219.15625 250.71875 224.128906 257.800781 C 224.273438 258.003906 224.226562 258.28125 224.023438 258.425781 C 223.945312 258.480469 223.855469 258.507812 223.765625 258.507812 " fill-opacity="1" fill-rule="nonzero"/></g><path fill="#d4917e" d="M 210.554688 215.964844 C 210.4375 215.964844 210.324219 215.921875 210.234375 215.832031 C 210.0625 215.65625 210.0625 215.371094 210.242188 215.195312 L 210.503906 214.9375 C 211.207031 214.246094 211.871094 213.59375 212.4375 212.902344 C 212.765625 212.5 213.097656 212.109375 213.425781 211.726562 C 214.964844 209.921875 216.417969 208.214844 216.988281 205.800781 C 217.585938 203.273438 218.164062 201.148438 219.667969 198.765625 C 221.863281 195.289062 222.441406 193.472656 221.558594 189.566406 C 220.945312 186.871094 219.789062 183.710938 218.464844 181.117188 C 218.351562 180.894531 218.441406 180.625 218.660156 180.511719 C 218.882812 180.398438 219.152344 180.484375 219.265625 180.707031 C 220.621094 183.367188 221.804688 186.605469 222.429688 189.367188 C 223.378906 193.550781 222.730469 195.59375 220.429688 199.246094 C 218.996094 201.511719 218.441406 203.5625 217.863281 206.007812 C 217.242188 208.632812 215.71875 210.421875 214.105469 212.308594 C 213.785156 212.6875 213.457031 213.074219 213.128906 213.472656 C 212.53125 214.199219 211.820312 214.898438 211.132812 215.578125 L 210.871094 215.835938 C 210.78125 215.921875 210.667969 215.964844 210.554688 215.964844 " fill-opacity="1" fill-rule="nonzero"/><path fill="#d4917e" d="M 212.019531 238.679688 C 211.949219 238.679688 211.878906 238.664062 211.8125 238.628906 C 210.324219 237.851562 208.738281 237.167969 207.113281 236.480469 C 206.042969 236.03125 204.910156 235.488281 203.652344 234.820312 C 203.074219 234.507812 202.554688 234.222656 202.0625 233.9375 C 201.328125 233.527344 200.605469 233.109375 200.058594 232.789062 L 199.386719 232.394531 C 198.933594 232.128906 198.484375 231.867188 198.027344 231.605469 C 194.871094 229.78125 192.742188 228.042969 190.683594 225.59375 C 190.398438 225.257812 190.113281 224.917969 189.832031 224.578125 C 187.925781 222.304688 186.128906 220.152344 183.898438 218.234375 C 183.726562 218.085938 183.515625 217.902344 183.277344 217.691406 C 182.667969 217.144531 181.828125 216.398438 180.929688 215.703125 C 180.734375 215.550781 180.699219 215.269531 180.851562 215.074219 C 181.003906 214.875 181.285156 214.839844 181.480469 214.992188 C 182.402344 215.707031 183.253906 216.464844 183.875 217.019531 C 184.109375 217.226562 184.3125 217.410156 184.484375 217.554688 C 186.769531 219.519531 188.589844 221.695312 190.519531 224.003906 C 190.800781 224.339844 191.085938 224.679688 191.371094 225.015625 C 193.355469 227.378906 195.414062 229.058594 198.476562 230.824219 C 198.933594 231.089844 199.386719 231.355469 199.839844 231.621094 L 200.511719 232.011719 C 201.054688 232.328125 201.773438 232.746094 202.503906 233.15625 C 202.992188 233.4375 203.507812 233.71875 204.074219 234.027344 C 205.304688 234.679688 206.414062 235.210938 207.460938 235.652344 C 209.109375 236.347656 210.710938 237.039062 212.226562 237.832031 C 212.449219 237.949219 212.53125 238.21875 212.417969 238.4375 C 212.335938 238.59375 212.179688 238.679688 212.019531 238.679688 " fill-opacity="1" fill-rule="nonzero"/><path fill="#d4917e" d="M 173.324219 242.707031 C 172.601562 242.707031 171.839844 242.664062 171.035156 242.574219 C 169.792969 242.4375 168.488281 242.191406 167.15625 241.84375 C 166.917969 241.78125 166.773438 241.535156 166.835938 241.292969 C 166.898438 241.054688 167.144531 240.910156 167.382812 240.972656 C 168.671875 241.3125 169.933594 241.550781 171.136719 241.679688 C 173.441406 241.9375 175.46875 241.800781 177 241.28125 C 178.324219 240.832031 179.585938 239.988281 180.804688 239.175781 C 181.738281 238.550781 182.710938 237.902344 183.710938 237.429688 C 186.183594 236.265625 188.914062 235.554688 192.066406 235.257812 C 192.078125 235.257812 192.09375 235.253906 192.109375 235.253906 C 192.109375 235.253906 192.121094 235.253906 192.132812 235.25 C 192.988281 235.175781 193.855469 235.210938 194.691406 235.242188 L 194.980469 235.25 C 195.742188 235.28125 196.378906 235.289062 197.011719 235.242188 C 198.441406 235.136719 200.007812 234.558594 201.421875 233.609375 C 201.628906 233.46875 201.90625 233.523438 202.046875 233.730469 C 202.183594 233.9375 202.128906 234.21875 201.921875 234.355469 C 200.378906 235.386719 198.660156 236.019531 197.078125 236.136719 C 196.40625 236.1875 195.742188 236.179688 194.949219 236.148438 L 194.660156 236.140625 C 193.808594 236.109375 193.003906 236.078125 192.199219 236.148438 C 192.1875 236.148438 192.171875 236.148438 192.160156 236.148438 C 192.15625 236.152344 192.148438 236.152344 192.136719 236.152344 C 189.097656 236.441406 186.46875 237.125 184.09375 238.242188 C 183.152344 238.6875 182.253906 239.289062 181.300781 239.921875 C 180.035156 240.769531 178.726562 241.644531 177.289062 242.132812 C 176.15625 242.515625 174.828125 242.707031 173.324219 242.707031 " fill-opacity="1" fill-rule="nonzero"/><path fill="#d4917e" d="M 167.269531 241.859375 C 167.078125 241.859375 166.898438 241.734375 166.839844 241.539062 C 166.769531 241.300781 166.902344 241.050781 167.140625 240.976562 C 167.625 240.832031 168.117188 240.640625 168.644531 240.390625 C 169.203125 240.128906 169.789062 239.808594 170.4375 239.40625 C 172.894531 237.898438 175.445312 236.785156 178.285156 235.597656 C 180.878906 234.515625 182.820312 234.128906 185.707031 234.121094 C 185.714844 234.121094 185.722656 234.121094 185.730469 234.121094 C 187.785156 234.121094 189.839844 234.582031 192.28125 235.269531 C 192.519531 235.335938 192.660156 235.582031 192.589844 235.820312 C 192.523438 236.0625 192.277344 236.199219 192.039062 236.132812 C 189.667969 235.464844 187.683594 235.019531 185.730469 235.019531 C 185.722656 235.019531 185.714844 235.019531 185.707031 235.019531 C 182.921875 235.027344 181.136719 235.382812 178.632812 236.425781 C 175.828125 237.601562 173.3125 238.695312 170.90625 240.171875 C 170.230469 240.589844 169.613281 240.929688 169.023438 241.203125 C 168.457031 241.46875 167.925781 241.679688 167.402344 241.835938 C 167.355469 241.851562 167.3125 241.859375 167.269531 241.859375 " fill-opacity="1" fill-rule="nonzero"/><path fill="#d4917e" d="M 181.042969 245.523438 C 180.578125 245.523438 180.101562 245.503906 179.609375 245.460938 C 176.828125 245.214844 174.050781 244.28125 170.867188 242.519531 C 170.652344 242.398438 170.574219 242.128906 170.691406 241.910156 C 170.8125 241.691406 171.085938 241.613281 171.304688 241.734375 C 174.371094 243.433594 177.035156 244.332031 179.6875 244.566406 C 182.265625 244.792969 184.402344 244.394531 186.035156 243.378906 C 187.511719 242.457031 188.890625 241.164062 190.105469 240.023438 C 190.6875 239.472656 191.300781 238.8125 191.945312 238.113281 C 192.601562 237.40625 193.277344 236.675781 193.988281 235.992188 C 194.191406 235.796875 194.425781 235.570312 194.675781 235.359375 C 194.863281 235.199219 195.148438 235.222656 195.308594 235.410156 C 195.46875 235.597656 195.445312 235.882812 195.257812 236.042969 C 195.027344 236.238281 194.804688 236.453125 194.609375 236.636719 C 193.917969 237.304688 193.25 238.027344 192.605469 238.726562 C 191.945312 239.4375 191.324219 240.109375 190.71875 240.675781 C 189.472656 241.847656 188.0625 243.175781 186.511719 244.140625 C 185.027344 245.0625 183.195312 245.523438 181.042969 245.523438 " fill-opacity="1" fill-rule="nonzero"/><path fill="#d4917e" d="M 200.289062 232.851562 C 200.152344 232.851562 200.019531 232.789062 199.929688 232.675781 C 199.117188 231.613281 198.394531 230.433594 197.695312 229.296875 C 197.160156 228.421875 196.601562 227.515625 196.007812 226.664062 C 194.378906 224.339844 192.878906 222.257812 191.027344 220.34375 C 189.109375 218.367188 186.046875 215.988281 183.210938 215.242188 C 182.542969 215.066406 181.792969 215.015625 180.917969 215.082031 C 180.671875 215.101562 180.457031 214.914062 180.4375 214.667969 C 180.417969 214.417969 180.605469 214.203125 180.851562 214.183594 C 181.824219 214.109375 182.671875 214.171875 183.4375 214.375 C 187.234375 215.371094 190.699219 218.714844 191.667969 219.71875 C 193.566406 221.675781 195.152344 223.878906 196.742188 226.148438 C 197.351562 227.023438 197.917969 227.941406 198.460938 228.828125 C 199.179688 229.996094 199.855469 231.101562 200.640625 232.128906 C 200.792969 232.324219 200.753906 232.605469 200.558594 232.757812 C 200.476562 232.820312 200.382812 232.851562 200.289062 232.851562 " fill-opacity="1" fill-rule="nonzero"/><path fill="#d4917e" d="M 203.863281 234.871094 C 203.839844 234.871094 203.816406 234.867188 203.792969 234.863281 C 203.050781 234.742188 202.316406 234.59375 201.605469 234.425781 C 201.585938 234.421875 201.570312 234.417969 201.554688 234.414062 C 195.933594 233.082031 190.644531 230.265625 187.042969 226.679688 C 185.296875 224.945312 182.996094 222.1875 181.925781 218.871094 C 181.835938 218.597656 181.753906 218.328125 181.671875 218.066406 C 181.382812 217.152344 181.113281 216.292969 180.792969 215.519531 C 180.703125 215.292969 180.597656 215.0625 180.484375 214.832031 C 180.375 214.613281 180.464844 214.339844 180.683594 214.230469 C 180.90625 214.121094 181.175781 214.210938 181.285156 214.433594 C 181.414062 214.6875 181.527344 214.9375 181.625 215.183594 C 181.957031 215.984375 182.234375 216.863281 182.527344 217.792969 C 182.609375 218.054688 182.691406 218.324219 182.78125 218.597656 C 183.792969 221.738281 186 224.382812 187.671875 226.042969 C 191.164062 229.511719 196.292969 232.242188 201.75 233.539062 C 201.761719 233.539062 201.773438 233.542969 201.78125 233.546875 C 202.480469 233.710938 203.207031 233.859375 203.9375 233.976562 C 204.179688 234.019531 204.347656 234.25 204.308594 234.496094 C 204.269531 234.714844 204.078125 234.871094 203.863281 234.871094 " fill-opacity="1" fill-rule="nonzero"/><path fill="#d4917e" d="M 179.0625 207.3125 C 178.589844 207.3125 178.105469 207.289062 177.609375 207.234375 C 175.535156 207.019531 173.347656 206.714844 171.109375 206.328125 C 168.3125 205.851562 165.503906 204.984375 162.757812 203.757812 C 161.789062 203.324219 160.835938 202.8125 159.917969 202.316406 C 158.644531 201.628906 157.324219 200.917969 155.96875 200.429688 C 155.738281 200.34375 155.617188 200.089844 155.699219 199.855469 C 155.785156 199.621094 156.039062 199.5 156.273438 199.585938 C 157.691406 200.097656 159.039062 200.824219 160.34375 201.527344 C 161.25 202.011719 162.183594 202.515625 163.125 202.9375 C 165.800781 204.132812 168.539062 204.976562 171.261719 205.445312 C 173.480469 205.828125 175.648438 206.128906 177.703125 206.34375 C 180.070312 206.59375 182.179688 206.132812 183.929688 205.652344 C 184.167969 205.585938 184.414062 205.726562 184.480469 205.964844 C 184.546875 206.203125 184.40625 206.453125 184.167969 206.515625 C 182.699219 206.921875 180.984375 207.3125 179.0625 207.3125 " fill-opacity="1" fill-rule="nonzero"/><path fill="#d4917e" d="M 183.496094 194.714844 C 183.347656 194.714844 183.203125 194.640625 183.117188 194.507812 C 179.550781 188.910156 177.453125 183.621094 176.519531 177.859375 C 175.652344 172.550781 174.53125 168.382812 172.875 164.351562 C 172.78125 164.121094 172.890625 163.859375 173.121094 163.765625 C 173.351562 163.671875 173.613281 163.78125 173.707031 164.007812 C 175.386719 168.109375 176.527344 172.335938 177.40625 177.714844 C 178.320312 183.351562 180.375 188.535156 183.875 194.023438 C 184.007812 194.234375 183.949219 194.511719 183.738281 194.644531 C 183.664062 194.691406 183.582031 194.714844 183.496094 194.714844 " fill-opacity="1" fill-rule="nonzero"/><path fill="#d4917e" d="M 197.714844 189.046875 C 197.480469 189.046875 197.285156 188.867188 197.269531 188.632812 C 197.140625 186.898438 195.921875 184.847656 195.03125 183.347656 C 194.851562 183.042969 194.679688 182.757812 194.53125 182.496094 C 193.605469 180.867188 192.378906 179.40625 191.191406 177.988281 C 190.304688 176.925781 189.386719 175.832031 188.585938 174.660156 C 187.527344 173.117188 186.75 171.421875 185.996094 169.785156 C 185.582031 168.878906 185.148438 167.941406 184.679688 167.046875 C 184.5625 166.828125 184.648438 166.558594 184.867188 166.441406 C 185.085938 166.324219 185.359375 166.410156 185.472656 166.628906 C 185.957031 167.542969 186.390625 168.492188 186.8125 169.410156 C 187.550781 171.011719 188.3125 172.671875 189.324219 174.152344 C 190.101562 175.285156 191.007812 176.367188 191.882812 177.410156 C 193.09375 178.859375 194.34375 180.355469 195.308594 182.050781 C 195.457031 182.308594 195.625 182.589844 195.804688 182.890625 C 196.738281 184.464844 198.019531 186.621094 198.164062 188.566406 C 198.179688 188.8125 197.996094 189.027344 197.75 189.046875 C 197.738281 189.046875 197.726562 189.046875 197.714844 189.046875 " fill-opacity="1" fill-rule="nonzero"/></svg>