<svg xmlns="http://www.w3.org/2000/svg" width="500" viewBox="0 0 375 375" height="500" version="1.0"><defs><clipPath id="prefix__a">
    <path d="M86.797 183.566h7.5v7.5h-7.5zm0 0"/></clipPath><clipPath id="prefix__b">
    <path d="M279.648 183.566h7.5v7.5h-7.5zm0 0"/></clipPath><clipPath id="prefix__c"><path d="M201 121.91h28.297v26.645H201zm0 0"/></clipPath><clipPath id="prefix__d">
    <path d="M199.203 147.059h25.133v111.449h-25.133zm0 0"/></clipPath></defs>
    <g clip-path="url(#prefix__a)">
    <path fill="#d4917e" d="M90.547 183.566a3.748 3.748 0 00-3.75 3.75 3.746 3.746 0 003.75 3.75 3.751 3.751 0 000-7.5"/>
    </g>
    <path d="M121.047 256.825l.562.61-10.969 4.78-.187-.187 3.187-6.547-6.656 2.906-.187-.187 5.25-10.813 1.234 1.297-4.469 8.344 5.297-2.484 1.594-3.329 1.25 1.313-4.484 8.344zm0 0M118.884 269.296l6.672-8.75 5.297 4.047-.829.781-2.125-2.281c-.437-.332-.976-.613-1.609-.844l-2.437 3.203 2.937 2.235-.375.484-2.937-2.234-2.954 3.875 4.407 2.703-.797.78zm0 0M130.564 277.557l5.375-9.594 2.734 1.531c1.102.625 1.879 1.31 2.328 2.047.445.743.457 1.493.031 2.25-.304.532-.75.891-1.343 1.078-.586.188-1.262.196-2.032.016.782.656 1.274 1.324 1.485 2 .207.688.164 1.285-.125 1.797-.282.508-.657.867-1.125 1.078a3.104 3.104 0 01-1.453.297c-1.063-.063-2.024-.336-2.875-.813zm4.328-4.422l1.03.594c.876.492 1.614.648 2.22.469.601-.176 1.07-.563 1.406-1.157.219-.382.285-.812.203-1.28-.086-.47-.36-.942-.828-1.423a7.655 7.655 0 00-2.031-.781zm-.235.422l-2.328 4.125c.25.281.696.598 1.344.953.644.363 1.32.508 2.031.438.707-.075 1.238-.43 1.594-1.063.352-.637.375-1.32.062-2.062-.304-.739-.84-1.329-1.609-1.766zm0 0M152.767 287.83l3-10.579 3.031.86c1.25.355 2.305.945 3.172 1.765a6.05 6.05 0 011.125 1.453c.29.532.461 1.157.516 1.875.062.711-.016 1.454-.234 2.235-.325 1.125-.875 2-1.657 2.625-1.449 1.125-3.324 1.363-5.625.719zm3.172.312c1.352.383 2.55.289 3.594-.281 1.039-.57 1.781-1.63 2.219-3.172.332-1.188.296-2.297-.11-3.328a4.7 4.7 0 00-2.047-2.391c-.918-.258-1.757-.379-2.515-.36l-2.547 8.985c.312.188.781.367 1.406.547zm0 0M169.047 291.768l1.438-10.906 6.61.86-.313 1.093-3-.906c-.543-.07-1.149-.055-1.813.047l-.53 3.984 3.655.485-.078.625-3.656-.485-.64 4.813 5.156.172-.282 1.078zm0 0M186.852 293.354l-4.984-11.235 1.797-.015 3.703 8.984 3.25-9.015h.828l-4.328 11.28zm0 0M198.096 292.468l-1.547-10.89 6.594-.938-.016 1.14-3.125-.062a6.299 6.299 0 00-1.734.516l.562 4 3.656-.516.094.61-3.656.515.687 4.813 5.016-1.22v1.11zm0 0M212.092 289.945l-2.922-10.61 1.563-.437 2.687 9.75c.696.011 1.243-.04 1.641-.156l2.75-1.282.125 1.11zm0 0M224.695 273.802c1.312-.57 2.586-.613 3.828-.125 1.238.492 2.191 1.512 2.86 3.063.437.992.64 1.933.609 2.828-.024.898-.219 1.68-.594 2.344-.75 1.261-1.781 2.18-3.094 2.75-1.304.562-2.574.593-3.812.093-1.242-.507-2.196-1.535-2.875-3.078-.344-.812-.54-1.586-.594-2.328-.05-.738.023-1.394.219-1.969.199-.57.48-1.097.844-1.578a6.63 6.63 0 012.609-2zm.625 9.875c.469.324.973.516 1.516.578.55.055 1.117-.046 1.703-.296a3.097 3.097 0 001.375-1.11 3.5 3.5 0 00.578-1.64 6.954 6.954 0 00-.563-3.422c-.586-1.344-1.324-2.305-2.218-2.891-1.012-.664-2.211-.703-3.594-.11-.836.774-1.317 1.696-1.453 2.766-.133 1.063.027 2.125.484 3.188.563 1.304 1.285 2.281 2.172 2.937zm0 0M241.877 267.838c.563.906.657 1.797.282 2.672-.375.875-1.137 1.668-2.282 2.375l-1.203.75 2.578 4.172-1.359.844-5.797-9.344 3.016-1.875c.96-.594 1.875-.86 2.75-.797.883.055 1.554.453 2.015 1.203zm-3.453 5.406l1.25-.765c.438-.281.758-.602.969-.969.219-.375.316-.734.297-1.078-.055-.633-.215-1.176-.484-1.625-.137-.207-.356-.426-.657-.656-.593-.477-1.3-.594-2.125-.344a8.683 8.683 0 00-1.75 1.406zm0 0M251.487 270.856l-6.984-8.5 5.14-4.219.594.97-2.703 1.562c-.426.343-.828.796-1.203 1.359l2.547 3.11 2.843-2.344.407.484-2.844 2.344 3.078 3.765 3.64-3.672.579.954zm0 0M259.441 256.661l3.86 3.547-1.094 1.188-8.094-7.453 2.422-2.625c.762-.832 1.57-1.336 2.422-1.516.856-.187 1.578-.004 2.172.547.594.555.867 1.2.828 1.937-.043.743-.324 1.528-.844 2.36l6.97.36-1.142 1.577-6.625-.875zm-.375-.343l.72-.782c1.355-1.468 1.452-2.734.296-3.796-.187-.176-.453-.329-.797-.454-.676-.289-1.379-.207-2.11.25a8.755 8.755 0 00-1.296 1.844zm0 0M109.995 133.663l-8.796-6.594.968-1.297 8.078 6.063c.57-.426.977-.801 1.22-1.125l1.374-2.72.781.829zm0 0M120.103 121.667l-1.125 1.172-2.921-2.844-7.579-2.125 1.25-1.297 6.672 2.172-2.515-6.453.562-.594 2.656 7.063zm0 0M132.919 110.96l-.234.173-11.313-2.766-.062.047 5.453 7.063-.563.437-6.719-8.703.97-.734 9.89 2.453.062-.047-4.89-6.328.578-.438zm0 0M138.03 107.376l-5.297-9.64 2.75-1.516c1.148-.625 2.312-.953 3.5-.984a5.911 5.911 0 011.812.25c.582.18 1.145.5 1.688.968.55.469 1.023 1.059 1.422 1.766.562 1.031.785 2.047.672 3.047-.25 1.812-1.422 3.293-3.516 4.437zm2.468-2.015c1.239-.676 2.032-1.582 2.375-2.72.344-1.132.125-2.405-.656-3.812-.594-1.082-1.398-1.847-2.406-2.297a4.785 4.785 0 00-3.156-.265c-.832.46-1.516.965-2.047 1.515l4.5 8.188c.363-.094.828-.297 1.39-.61zm0 0M149.43 91.69c.167.449.5.804 1 1.062.507.25 1.077.43 1.702.531.625.106 1.243.215 1.86.328a5.173 5.173 0 011.719.64c.53.313.894.743 1.093 1.282.32.844.27 1.656-.156 2.438-.418.773-1.164 1.36-2.234 1.765-1.063.399-2.203.586-3.422.563l-.281-.735c1.27.149 2.273.086 3.015-.187.75-.281 1.258-.68 1.531-1.203.282-.531.301-1.117.063-1.766-.156-.426-.477-.754-.953-.984a5.645 5.645 0 00-1.61-.469c-.585-.082-1.171-.172-1.765-.266a4.426 4.426 0 01-1.625-.593c-.508-.313-.88-.774-1.11-1.39-.226-.614-.164-1.282.188-2 .344-.728 1.059-1.298 2.14-1.704.696-.258 1.645-.438 2.844-.531l.235 1.14c-1.617-.082-2.922.063-3.922.438-.445.46-.551 1.008-.313 1.64zm0 0M162.121 96.87l2.344-12.078.25-.047 7.265 9.922-1.765.39-1.86-2.625-4.812 1.063-.563 3.172zm1.531-4.047l4.297-.969-3.297-4.766zm0 0M181.165 93.718l-1.625.125-.328-4.062-4.28-6.61 1.812-.14 3.562 6.047 2.36-6.531.828-.063-2.657 7.078zm0 0M199.814 88.124l3.5.453-.078.625-3.5-.453-.703 5.406-1.594-.203 1.406-10.906 6.438.828-.14 1.11-2.985-.907a6.613 6.613 0 00-1.828.047zm0 0M219.42 87.24l-1.75 6.515c-.273 1-.59 1.719-.953 2.156a3.81 3.81 0 01-.656.641c-.282.227-.586.39-.907.484-.804.227-1.742.196-2.812-.093-2.649-.711-3.606-2.426-2.875-5.157l1.812-6.734 1.641.437-1.844 6.86c-.086.312-.152.562-.203.75-.043.187-.058.476-.047.86.008.386.078.71.203.968.125.262.348.523.672.797.332.27.758.476 1.281.625 2 .539 3.286-.262 3.86-2.406l1.86-6.891zm0 0M225.735 101.393l-1.484-.625 4-9.39a5.53 5.53 0 00-.985-.547l-2.265-.406.359-1.14 7.875 3.343-.531 1.062-1.89-1.343a6.547 6.547 0 00-1.079-.344zm0 0M237.504 101.408l-2.703 4.5-1.407-.844 5.657-9.437 3.078 1.843c.957.575 1.613 1.262 1.969 2.063.351.793.32 1.539-.094 2.234-.418.7-.996 1.106-1.735 1.22-.73.105-1.554-.009-2.468-.345l1.047 6.89-1.782-.796-.468-6.672zm.25-.438l.906.547c1.707 1.024 2.969.86 3.781-.484.125-.227.22-.52.282-.875.132-.727-.102-1.399-.704-2.016a8.65 8.65 0 00-2.03-.89zm0 0M245.103 112.638l6.906-8.563 5.172 4.188-.828.766-2.078-2.329c-.43-.343-.953-.644-1.578-.906l-2.532 3.125 2.86 2.313-.39.484-2.86-2.312-3.047 3.78 4.328 2.845-.828.75zm0 0M254.72 120.987l7.938-7.61 1.125 1.172-7.297 7c.32.625.625 1.082.906 1.375l2.453 1.813-.922.625zm0 0M262.43 129.588l8.797-6.593.969 1.297-8.079 6.062c.239.656.477 1.145.72 1.469l2.218 2.094-1 .515zm0 0" fill="#d4917e"/>
    <g clip-path="url(#prefix__b)">
        <path fill="#d4917e" d="M283.398 183.566a3.751 3.751 0 10.002 7.502 3.751 3.751 0 00-.002-7.502"/></g><path fill="#d4917e" d="M209.66 218.887a.448.448 0 01-.441-.38 22.419 22.419 0 01-.215-1.82c-.152-1.886-.086-3.625.2-5.027.21-1.05.628-2.047 1.034-3.012.418-.996.813-1.93.989-2.91.273-1.511-.008-2.918-.305-4.406-.363-1.832-.742-3.727-.027-5.848 1.046-3.12 3.175-6.18 4.683-8.207 1.492-2.007 2.32-3.382 2.688-5.328a.45.45 0 01.882.168c-.398 2.106-1.308 3.625-2.847 5.696-1.473 1.98-3.547 4.957-4.555 7.957-.64 1.894-.3 3.59.059 5.386.297 1.504.61 3.063.304 4.742-.191 1.079-.625 2.106-1.043 3.098-.386.922-.789 1.879-.984 2.844-.266 1.32-.328 2.972-.18 4.777.043.578.11 1.168.203 1.75a.45.45 0 01-.375.516c-.023.004-.046.004-.07.004"/><path fill="#d4917e" d="M218.707 182.477a.452.452 0 01-.441-.535c.062-.333.117-.692.152-1.075a.45.45 0 01.895.086 12.2 12.2 0 01-.165 1.16.455.455 0 01-.441.364M174.121 209.746c-3.828 0-7.633-.465-11.277-1.394-1.602-.41-3.239-.77-4.824-1.122-3.258-.714-6.63-1.457-9.864-2.664-.336-.125-.722-.261-1.152-.414-.547-.195-1.16-.414-1.805-.656a.45.45 0 01.317-.84c.636.239 1.246.453 1.789.649.433.156.828.297 1.164.422 3.176 1.183 6.515 1.918 9.746 2.628 1.59.348 3.238.711 4.851 1.125 8.036 2.055 16.887 1.786 24.934-.753.926-.297 1.84-.618 2.71-.957a.451.451 0 01.328.84c-.893.343-1.823.671-2.765.972a47.242 47.242 0 01-14.152 2.164"/><path fill="#d4917e" d="M188.137 207.602c-.024 0-.051 0-.075-.004-1.222-.203-2.62-.57-4.156-1.09-2.597-.871-5.199-2.043-7.105-2.899a71.52 71.52 0 00-2.078-.914c-.899-.367-1.793-.773-2.657-1.164-3.578-1.62-6.96-3.152-10.968-2.441-1.555.273-3.133.715-4.82 1.34-.821.3-1.657.644-2.555 1.047-3.016 1.34-5.336 1.93-8 2.039-.125.004-.246.007-.364.007a.45.45 0 010-.898c.11 0 .22 0 .332-.004 2.97-.125 5.211-.875 7.664-1.965.918-.41 1.77-.758 2.61-1.07 1.742-.645 3.367-1.094 4.976-1.383 4.286-.758 7.95.906 11.496 2.512.856.387 1.743.789 2.625 1.152.563.23 1.282.551 2.106.922 1.887.848 4.469 2.012 7.023 2.867 1.493.504 2.844.86 4.016 1.055a.448.448 0 01-.07.89M181.906 198.996a.448.448 0 01-.445-.398c-.32-2.825-2.797-7.012-4.606-10.07-.925-1.567-1.656-2.801-1.949-3.579-1.504-3.969-2.422-7.32-2.984-10.875-.754-4.738-1.516-8.426-3.008-12.168-.95-2.39-2.262-4.742-3.527-7.015a290.58 290.58 0 01-.559-1.004c-.25-.453-.644-1.02-1.129-1.711a.447.447 0 01.11-.625.447.447 0 01.625.11c.5.714.906 1.3 1.18 1.792.183.332.37.664.554.996 1.285 2.301 2.61 4.68 3.578 7.125 1.688 4.23 2.465 8.598 3.063 12.36.55 3.492 1.457 6.789 2.937 10.695.266.707 1.016 1.973 1.883 3.437 1.851 3.13 4.383 7.414 4.723 10.43a.448.448 0 01-.395.496c-.02.004-.035.004-.05.004"/>
        <path fill="#d4917e" d="M182.469 199.41a.45.45 0 01-.293-.793c.812-.687 1.105-2.137.875-4.304-.238-2.254-.977-4.743-1.52-6.56-.187-.64-.355-1.19-.453-1.593-.387-1.586-.605-3.113-.816-4.59-.399-2.789-.778-5.425-2.239-8.11l-.367-.679c-1.57-2.883-3.054-5.605-4.746-8.367-.008-.008-.012-.016-.015-.023-.36-.586-.715-1.172-1.07-1.758-1.49-2.45-3.028-4.985-4.774-7.293-.805-1.063-1.863-2.063-3.246-3.055a.449.449 0 11.523-.73c1.457 1.047 2.582 2.105 3.438 3.242 1.777 2.348 3.324 4.898 4.824 7.371.355.586.71 1.168 1.07 1.75.004.012.008.02.016.027 1.703 2.782 3.191 5.516 4.77 8.407l.367.68c1.539 2.827 1.925 5.538 2.335 8.41.207 1.456.426 2.96.801 4.503.094.383.258.926.446 1.555.515 1.742 1.3 4.383 1.55 6.719.266 2.515-.12 4.18-1.187 5.082a.431.431 0 01-.29.11M160.762 182.48a.445.445 0 01-.364-.187c-.316-.438-.628-.875-.937-1.313-1.566-2.218-3.047-4.308-5.227-5.937-.812-.606-1.597-1.273-2.355-1.918a46.967 46.967 0 00-2.2-1.805c-2.238-1.691-5.378-2.593-8.152-3.386-.312-.09-.62-.176-.922-.266l-.34-.102c-1.136-.34-2.312-.687-3.421-.379-1.196.336-1.383.899-1.7 1.82-.109.329-.234.696-.417 1.083-.332.687-.844 1.137-1.254 1.45-.211.163-.43.315-.645.46-.844.59-1.574 1.094-1.758 2.145-.113.656.121 1.132.399 1.687.234.469.472.953.511 1.57.032.547-.136 1.078-.296 1.59-.133.41-.254.797-.254 1.137-.004.062 0 .105.004.148a.451.451 0 01-.399.496.445.445 0 01-.492-.398c-.012-.098-.016-.191-.012-.277.004-.45.153-.922.293-1.375.145-.457.281-.887.258-1.266-.023-.434-.215-.82-.418-1.227-.3-.605-.644-1.292-.476-2.242.246-1.418 1.246-2.113 2.128-2.722.207-.145.414-.29.61-.438.492-.379.797-.723.992-1.125.16-.34.27-.664.379-.984.336-.992.652-1.93 2.3-2.395 1.364-.383 2.727.024 3.926.383l.332.098c.301.09.61.175.922.265 2.844.817 6.07 1.739 8.442 3.532a47.66 47.66 0 012.242 1.84c.746.636 1.52 1.292 2.309 1.878 2.296 1.715 3.886 3.965 5.425 6.14.305.435.614.872.93 1.306a.45.45 0 01-.363.714"/>
    <path fill="#d4917e" d="M159.402 182.691a.448.448 0 01-.449-.414.454.454 0 01.414-.484c.102-.004.2-.012.293-.016.387-.023.688-.043.903-.148.218-.11.507-.375.82-1.508.156-.566.273-1.172.363-1.855.16-1.262.188-2.594.215-3.88.016-.675.027-1.37.062-2.046l.07-1.34c.192-3.434.387-6.988-.784-10.254-.442-1.223-1.086-2.305-1.77-3.445-.414-.696-.844-1.414-1.219-2.156-1.043-2.09-1.636-4.747-1.664-7.48 0-.247.196-.45.446-.454.25.012.449.195.453.445.027 2.602.586 5.117 1.57 7.086.36.715.777 1.418 1.184 2.098.675 1.129 1.375 2.297 1.843 3.601 1.235 3.438 1.032 7.082.84 10.61-.027.445-.05.89-.074 1.336-.031.66-.047 1.351-.059 2.015-.027 1.313-.054 2.664-.222 3.98a14.651 14.651 0 01-.387 1.977c-.328 1.188-.703 1.786-1.293 2.075-.371.187-.773.21-1.242.238-.09.008-.184.012-.281.02h-.032"/><path fill="#d4917e" d="M143.523 190.176c-2.503 0-5.293-.582-7.472-1.36-3.828-1.367-6.414-4.343-8.238-6.785a.449.449 0 01.09-.629.444.444 0 01.624.09c1.864 2.485 4.246 5.2 7.828 6.48 3.008 1.071 7.512 1.805 10.286.876 1.91-.641 3.578-1.965 5.191-3.25 1.543-1.227 3.137-2.496 4.988-3.223.43-.168.856-.3 1.27-.398.472-.114.89-.153 1.273-.184a.45.45 0 01.067.898c-.32.024-.703.059-1.137.16a8.183 8.183 0 00-1.145.36c-1.726.68-3.265 1.902-4.757 3.09-1.676 1.332-3.407 2.71-5.47 3.398-.987.332-2.16.477-3.398.477M162.191 178.773a.44.44 0 01-.351-.171c-.414-.528-.844-1.051-1.274-1.582-2.261-2.778-4.601-5.649-5.062-9.024-.309-2.23-1.09-4.23-1.918-6.348-.422-1.085-.863-2.21-1.234-3.37-1.047-3.27-.586-6.231 1.289-8.34a.858.858 0 01.078-.09c.691-.758 1.484-1.336 2.25-1.899.293-.21.582-.422.86-.64a.443.443 0 01.628.074.448.448 0 01-.074.633c-.29.222-.586.441-.883.66-.734.535-1.488 1.086-2.133 1.793l-.02.023c-.003.004-.023.031-.027.031-2.246 2.524-1.66 5.77-1.113 7.48.363 1.134.797 2.243 1.215 3.317.812 2.075 1.648 4.215 1.969 6.555.43 3.125 2.687 5.895 4.87 8.578.434.531.868 1.063 1.286 1.594a.457.457 0 01-.078.633.457.457 0 01-.278.093"/>
    <path fill="#d4917e" d="M156.984 183.242a.515.515 0 01-.172-.031c-1.195-.496-2.367-1.078-3.503-1.645-2.934-1.46-5.704-2.84-8.903-2.84h-.144c-.633 0-1.254-.011-1.856-.027-2.168-.043-4.21-.082-6.367.457a28.738 28.738 0 00-4.562 1.543c-.754.32-1.559.7-2.524 1.192-.219.109-.418.203-.61.285a.448.448 0 01-.347-.828c.172-.07.352-.157.55-.258.985-.5 1.802-.887 2.579-1.219a29.88 29.88 0 014.695-1.586c2.274-.57 4.375-.527 6.602-.484.637.015 1.293.027 1.953.027h.031c3.41 0 6.406 1.492 9.305 2.934 1.117.558 2.277 1.136 3.441 1.617a.449.449 0 01-.168.863M133.2 171.633a.447.447 0 01-.446-.41 3.641 3.641 0 00-.305-1.192c-.137-.308-.347-.55-.57-.808-.457-.528-.973-1.125-.793-2.25.11-.657.508-1.176.898-1.68.258-.336.504-.652.637-.98.32-.817.32-1.586.32-2.477 0-.223 0-.445.008-.676 0-.129.004-.265.012-.406.105-2.121.82-3.746 2.117-4.82 1.676-1.38 4.281-1.832 7.754-1.344a.447.447 0 01.379.508.448.448 0 01-.508.382c-3.207-.453-5.582-.066-7.05 1.149-1.098.906-1.704 2.309-1.798 4.176-.003.12-.007.246-.007.363-.008.234-.008.453-.008.668 0 .941 0 1.832-.387 2.809-.18.445-.473.828-.758 1.199-.336.433-.652.84-.722 1.277-.114.707.18 1.043.582 1.512.246.281.523.601.715 1.031.207.473.328.941.378 1.477a.453.453 0 01-.41.488c-.011 0-.023.004-.039.004"/>
    <path fill="#d4917e" d="M154.5 175.133a.454.454 0 01-.43-.324c-.144-.489-.28-.977-.422-1.465-.82-2.88-1.593-5.598-3.457-8.04-.312-.413-.937-1.093-1.664-1.874-2.03-2.2-5.097-5.528-6.175-8.23-.516-1.294-.536-2.356-.063-3.169.496-.855 1.535-1.394 3.082-1.61.387-.05.777-.026 1.152 0 .524.036 1.02.071 1.399-.116.43-.215.687-.575.96-.953.395-.543.84-1.165 1.81-1.258 1.21-.121 2.19.68 3.058 1.39.168.137.336.27.496.395.2.152.238.434.086.629a.445.445 0 01-.629.086c-.172-.13-.344-.274-.52-.414-.765-.63-1.562-1.274-2.406-1.192-.539.051-.78.356-1.164.89-.312.43-.664.915-1.289 1.231-.597.297-1.242.25-1.863.211-.344-.027-.676-.047-.969-.007-1.258.171-2.078.566-2.43 1.171-.324.559-.285 1.364.122 2.383 1.015 2.551 4.02 5.801 6.004 7.953.769.832 1.378 1.493 1.718 1.938 1.965 2.578 2.797 5.508 3.606 8.34.136.488.277.972.422 1.457a.453.453 0 01-.434.578M131.3 180.734a.49.49 0 01-.195-.043 5.975 5.975 0 01-.222-.113l-.215-.105c-.766-.383-1.555-.778-2.207-1.332-1.918-1.633-1.418-2.922-.887-4.29.125-.328.254-.667.367-1.035.317-1.043.043-1.722-.277-2.511-.289-.707-.617-1.508-.477-2.598.47-3.633 3.317-5.984 5.946-7.902.199-.145.48-.102.629.097a.45.45 0 01-.102.63c-2.594 1.89-5.16 4.011-5.582 7.292-.11.852.145 1.477.414 2.14.336.829.719 1.766.309 3.114-.121.399-.258.754-.39 1.098-.516 1.328-.802 2.062.632 3.281.57.484 1.277.836 2.027 1.211l.22.11c.065.035.136.07.206.105a.445.445 0 01.207.597.45.45 0 01-.402.254M207.102 225.219a.453.453 0 01-.387-.219c-.012-.02-.024-.043-.04-.059-.007-.011-.015-.02-.019-.03a160.215 160.215 0 00-2.96-4.407c-2.114-3.004-4.598-5.492-7.231-8.129-.477-.48-.957-.96-1.434-1.445a253.913 253.913 0 00-3.457-3.442c-.336-.328-.672-.652-1.008-.976-3.054-2.926-5.71-5.211-8.367-7.192a16.56 16.56 0 00-.55-.406 12.33 12.33 0 00-.52-.379c-1.191-.855-2.441-1.652-3.652-2.422-1.551-.992-3.157-2.015-4.66-3.168-.907-.699-1.81-1.433-2.684-2.144-2.028-1.653-4.121-3.36-6.399-4.68-.695-.402-1.535-1.09-2.425-1.816-.704-.578-1.43-1.172-2.153-1.684a.45.45 0 01.242-.828h.004a.47.47 0 01.258.082c.754.535 1.496 1.145 2.219 1.734.86.703 1.676 1.368 2.305 1.735 2.34 1.355 4.46 3.086 6.515 4.758.871.71 1.77 1.441 2.664 2.132 1.473 1.13 3.059 2.141 4.598 3.121 1.219.778 2.48 1.583 3.687 2.446.176.125.352.254.528.387.183.128.375.269.562.414 2.684 2 5.367 4.308 8.45 7.261.335.328.675.653 1.015.98a256.956 256.956 0 013.465 3.454c.477.484.957.965 1.434 1.441 2.66 2.668 5.171 5.184 7.328 8.25a152.609 152.609 0 013.054 4.551.45.45 0 01-.152.617.455.455 0 01-.23.063"/>
    <path fill="#d4917e" d="M207.414 224.898zm-.031.04zm-.352.175a.46.46 0 01-.27-.086.452.452 0 01-.093-.625c.012-.02.023-.039.039-.054.73-1.094 1.582-3.13 2.527-6.047.301-.926.598-1.903.891-2.91.352-1.196.66-2.313.938-3.293.355-1.282.613-2.203.777-2.66.906-2.5 2.129-4.637 3.422-6.903.39-.687.785-1.379 1.175-2.09 1.047-1.914 1.215-4.16 1.38-6.332.03-.418.062-.836.097-1.25.274-3.054.559-7.043.348-10.804-.004-.008-.004-.02-.004-.028a.45.45 0 01.762-.328.475.475 0 01.14.324c0 .004 0 .012-.004.02.211 3.808-.074 7.82-.347 10.894-.036.41-.067.825-.098 1.239-.168 2.265-.344 4.61-1.488 6.699-.391.715-.793 1.422-1.184 2.101-1.273 2.23-2.473 4.336-3.355 6.766-.153.422-.418 1.379-.758 2.59-.278.988-.586 2.105-.938 3.309-.297 1.011-.597 2-.902 2.933-.992 3.063-1.86 5.117-2.649 6.293l-.03.04a.451.451 0 01-.375.203M201.207 192.215a.442.442 0 01-.336-.156c-.86-.977-1.918-1.934-3.43-3.106-.66-.512-1.351-1.016-2.02-1.508-1.23-.902-2.5-1.84-3.624-2.824-2.617-2.297-5.524-5.043-6.906-8.605-.47-1.207-.84-2.407-1.196-3.563-.75-2.422-1.457-4.71-2.96-6.93-.614-.906-1.391-1.82-2.438-2.87a.454.454 0 01.004-.637.442.442 0 01.633.004c1.086 1.09 1.894 2.046 2.543 3 1.578 2.328 2.304 4.68 3.074 7.167.355 1.145.719 2.325 1.176 3.504 1.308 3.371 4.125 6.028 6.66 8.254 1.097.961 2.351 1.883 3.566 2.778.672.492 1.367 1.004 2.035 1.52 1.563 1.206 2.657 2.202 3.555 3.226a.446.446 0 01-.04.633.455.455 0 01-.296.113"/>
    <path fill="#d4917e" d="M200.504 185.156a.447.447 0 01-.383-.215c-3.004-4.921-6.793-9.691-10.953-13.8a67.98 67.98 0 00-4.375-3.957 54.13 54.13 0 00-4.867-3.586 21.501 21.501 0 00-1.52-.868.447.447 0 11.418-.793c.535.282 1.098.59 1.59.907a53.945 53.945 0 014.95 3.648 68.638 68.638 0 014.437 4.008c4.21 4.16 8.043 8.992 11.086 13.973a.45.45 0 01-.383.683M207.547 125.098a.447.447 0 01-.41-.625 22.316 22.316 0 00.977-3c.452-1.723.917-3.504 2.597-4.57 1.625-1.036 3.324-1.317 5.055-.84 2.597.718 5.195 3.234 6.949 6.73a.45.45 0 11-.8.406c-1.645-3.273-4.032-5.617-6.388-6.27-1.472-.41-2.933-.16-4.336.731-1.379.875-1.78 2.414-2.207 4.043-.132.508-.27 1.031-.441 1.535a20.74 20.74 0 01-.582 1.582.449.449 0 01-.414.278"/>
    <path fill="#d4917e" d="M206.348 146.719a.455.455 0 01-.29-.106.45.45 0 01-.05-.633c1.035-1.222 2.031-2.511 3-3.761.836-1.078 1.703-2.2 2.597-3.281.41-.493.817-1.02 1.208-1.532.652-.84 1.324-1.715 2.046-2.496.516-.562 1.106-1.039 1.676-1.5.805-.648 1.567-1.262 2.121-2.082 1.34-1.996 1.98-4.207 2.656-6.547.172-.594.352-1.21.54-1.816.011-.035.023-.074.039-.113.468-1.442 1.191-2.278 2.148-2.48.879-.192 1.899.155 3.125 1.062.363.27.649.457.926.609a.449.449 0 11-.438.785 8.838 8.838 0 01-1.023-.672c-.988-.734-1.797-1.039-2.399-.906-.625.133-1.125.766-1.488 1.883-.012.035-.023.066-.031.094a92.57 92.57 0 00-.535 1.804c-.668 2.305-1.356 4.684-2.774 6.797-.632.934-1.48 1.621-2.3 2.281-.57.461-1.11.895-1.582 1.407-.696.757-1.356 1.613-1.997 2.441-.398.516-.808 1.047-1.222 1.555-.89 1.07-1.75 2.183-2.586 3.258-.969 1.253-1.977 2.554-3.024 3.789a.449.449 0 01-.343.16M201.094 147.805a.448.448 0 01-.446-.422c-.183-2.832-1.238-5.508-3.523-8.938-1.605-2.422-3.25-5.43-3.246-9.39 0-1.27.2-2.457.394-3.602.133-.797.27-1.625.34-2.46.184-2.333-.218-4.302-1.261-6.2-.454-.82-1.032-1.629-1.766-2.477-.309-.359-.637-.718-.977-1.066a.446.446 0 01.008-.633.442.442 0 01.633.008c.355.36.695.73 1.016 1.105.773.891 1.386 1.754 1.87 2.63 1.118 2.03 1.567 4.222 1.372 6.703-.07.878-.215 1.722-.352 2.539-.195 1.16-.379 2.257-.379 3.457-.004 2.996.895 5.57 3.098 8.886 1.676 2.52 3.426 5.606 3.668 9.38a.453.453 0 01-.418.48h-.031"/><path fill="#d4917e" d="M201.883 148.422a.449.449 0 01-.258-.082 2.076 2.076 0 01-.148-.11l-.055-.042a3.65 3.65 0 01-.242-.188c-.125-.098-.25-.2-.375-.3-2.23-1.845-4.297-4.282-5.844-6.2-.965-1.195-2.164-2.684-2.856-4.238-1.03-2.313-1.437-5.25-1.765-7.614-.36-2.59-.293-5.328-.23-7.976.019-.774.038-1.54.042-2.297.008-.797.086-1.645.168-2.543.067-.723.133-1.469.164-2.203a13.76 13.76 0 00-.004-1.66.451.451 0 01.899-.063c.035.543.035 1.121.004 1.766-.031.75-.102 1.508-.168 2.242-.078.879-.156 1.711-.164 2.469-.008.762-.024 1.535-.043 2.312-.063 2.61-.13 5.313.222 7.832.317 2.305.715 5.172 1.692 7.371.648 1.446 1.805 2.883 2.734 4.04 1.524 1.882 3.551 4.277 5.727 6.07.117.101.234.195.355.289.078.062.153.121.227.176l.062.05.114.082a.45.45 0 01-.258.817"/><path fill="#d4917e" d="M224.133 121.258a.451.451 0 01-.395-.23c-1.968-3.571-5.105-8.442-9.593-9.52-.801-.195-1.57-.051-2.387.101-.63.118-1.281.243-1.969.204-1.023-.055-1.762-.481-2.476-.891-.454-.262-.883-.508-1.399-.676-2.004-.656-3.96-.16-6.035.367l-.395.102c-2.558.64-4.863 2.117-7.09 3.539l-.226.148a.452.452 0 01-.621-.136.449.449 0 01.137-.621l.226-.145c2.29-1.465 4.656-2.977 7.356-3.656l.394-.102c2.106-.535 4.281-1.086 6.535-.347.602.195 1.09.476 1.563.75.683.39 1.27.726 2.078.77.578.034 1.152-.075 1.758-.188.87-.165 1.773-.332 2.758-.094 4.832 1.16 8.12 6.242 10.175 9.96a.45.45 0 01-.394.665"/><g clip-path="url(#prefix__c)">
        <path fill="#d4917e" d="M201.695 148.281a.452.452 0 01-.445-.383.452.452 0 01.379-.511c.059-.008.121-.02.18-.035 1.707-.34 3.304-.997 4.347-1.489.88-.41 1.735-.883 2.41-1.328 1.559-1.027 3.23-1.71 4.844-2.375 1.473-.605 2.992-1.226 4.383-2.101 2.11-1.325 3.18-3.387 4.316-5.575.559-1.07 1.137-2.18 1.848-3.199a73.134 73.134 0 011.566-2.144c.805-1.078 1.637-2.192 2.332-3.29.668-1.058.668-1.058.184-2.03l-.168-.344a50.774 50.774 0 01-.406-.848.448.448 0 11.808-.383c.13.266.262.543.407.84l.164.336c.629 1.266.652 1.508-.23 2.906-.716 1.133-1.555 2.258-2.372 3.348-.52.699-1.058 1.422-1.55 2.125-.676.969-1.243 2.054-1.786 3.097-1.14 2.196-2.32 4.47-4.636 5.922-1.454.914-3.012 1.555-4.52 2.172-1.574.645-3.203 1.313-4.688 2.293-.714.469-1.609.965-2.523 1.39-1.09.512-2.758 1.2-4.531 1.552a2.7 2.7 0 01-.246.05c-.024 0-.047.004-.067.004"/></g><path fill="#d4917e" d="M201.46 148.098a.442.442 0 01-.3-.118.446.446 0 01-.031-.632c.21-.235.418-.477.613-.723 2.735-3.398 4.735-8.55 5.223-13.45.289-2.937.515-5.792.14-8.464-.433-3.106-1.609-5.5-3.707-7.54-1.511-1.472-4.128-1.948-5.925-1.663-.5.082-1.207.418-1.957.777-.536.254-1.086.516-1.618.711a.448.448 0 11-.308-.844c.492-.18 1.023-.433 1.539-.68.809-.382 1.574-.75 2.203-.85 1.957-.313 4.887.148 6.691 1.905 2.22 2.157 3.516 4.79 3.97 8.059.39 2.77.16 5.687-.134 8.676-.511 5.14-2.535 10.343-5.418 13.925a14.85 14.85 0 01-.648.762.452.452 0 01-.332.149"/>
    <g clip-path="url(#prefix__d)">
        <path fill="#d4917e" d="M223.766 258.508a.445.445 0 01-.368-.192c-5.007-7.125-8.863-13.632-11.785-19.894-1.668-3.57-3.054-7.125-4.117-10.567a54.49 54.49 0 01-.828-2.976c-.012-.031-.023-.086-.035-.137-1.008-4.039-1.645-8.207-2.258-12.238-.54-3.54-1.098-7.195-1.898-10.719-.704-3.078-1.262-6.336-1.715-9.965a161.79 161.79 0 01-.707-7.078c-.246-3.027-.438-6.125-.621-9.117l-.11-1.809c-.336-5.449.215-10.933.746-16.242l.13-1.324c.171-1.727.452-3.473.726-5.168.125-.77.25-1.543.363-2.316.027-.207.07-.434.113-.676l.04-.195c.015-.079.023-.133.035-.184a.443.443 0 01.52-.363c.241.039.405.273.362.515a3.613 3.613 0 01-.043.219l-.03.168c-.04.23-.079.445-.11.645-.113.78-.238 1.554-.363 2.332-.27 1.68-.551 3.414-.72 5.113l-.132 1.324c-.527 5.27-1.074 10.719-.742 16.094l.113 1.812c.184 2.989.371 6.078.617 9.102.203 2.539.43 4.84.703 7.039.45 3.598 1.004 6.824 1.7 9.875.808 3.555 1.367 7.23 1.91 10.781.61 4.012 1.242 8.16 2.238 12.145 0 .004.004.027.008.031.008.031.012.062.023.094.266 1.058.535 2.02.824 2.953 1.051 3.402 2.418 6.918 4.07 10.453 2.9 6.215 6.731 12.676 11.704 19.758a.446.446 0 01-.363.707"/>
        </g>
        <path fill="#d4917e" d="M210.555 215.965a.446.446 0 01-.313-.77l.262-.257c.703-.692 1.367-1.344 1.934-2.036.328-.402.66-.793.988-1.175 1.539-1.805 2.992-3.512 3.562-5.926.598-2.528 1.176-4.653 2.68-7.035 2.195-3.477 2.773-5.293 1.89-9.2-.613-2.695-1.769-5.855-3.093-8.449a.451.451 0 01.195-.605.448.448 0 01.606.195c1.355 2.66 2.539 5.898 3.164 8.66.949 4.184.3 6.227-2 9.88-1.434 2.265-1.989 4.315-2.567 6.76-.62 2.626-2.144 4.415-3.758 6.302-.32.379-.648.765-.976 1.164-.598.726-1.309 1.425-1.996 2.105l-.262.258a.456.456 0 01-.316.129M212.02 238.68a.438.438 0 01-.208-.051c-1.488-.777-3.074-1.461-4.699-2.149a42.199 42.199 0 01-3.46-1.66 61.803 61.803 0 01-1.59-.882c-.735-.41-1.458-.829-2.004-1.149l-.672-.394c-.453-.266-.903-.528-1.36-.79-3.156-1.824-5.285-3.562-7.343-6.011-.286-.336-.57-.676-.852-1.016-1.906-2.273-3.703-4.426-5.934-6.344a67.267 67.267 0 01-.62-.543 42.657 42.657 0 00-2.348-1.988.448.448 0 01-.078-.629.445.445 0 01.628-.082 45.22 45.22 0 012.395 2.028c.234.207.438.39.61.535 2.285 1.965 4.105 4.14 6.035 6.449.28.336.566.676.851 1.012 1.984 2.363 4.043 4.043 7.106 5.808.457.266.91.531 1.363.797l.672.39a144.586 144.586 0 003.562 2.016c1.23.653 2.34 1.184 3.387 1.625 1.648.696 3.25 1.387 4.766 2.18a.449.449 0 01-.207.848"/><path fill="#d4917e" d="M173.324 242.707c-.722 0-1.484-.043-2.289-.133a27.257 27.257 0 01-3.879-.73.45.45 0 01.227-.871c1.289.34 2.55.578 3.754.707 2.304.257 4.332.12 5.863-.399 1.324-.449 2.586-1.293 3.805-2.105.933-.625 1.906-1.274 2.906-1.746 2.473-1.164 5.203-1.875 8.355-2.172.012 0 .028-.004.043-.004 0 0 .012 0 .024-.004.855-.074 1.722-.04 2.558-.008l.29.008c.761.031 1.398.04 2.03-.008 1.43-.105 2.997-.683 4.41-1.633a.448.448 0 11.5.746c-1.542 1.032-3.26 1.665-4.843 1.782-.672.05-1.336.043-2.129.011l-.289-.007c-.851-.032-1.656-.063-2.46.007h-.04c-.004.004-.012.004-.023.004-3.04.29-5.668.973-8.043 2.09-.942.446-1.84 1.047-2.793 1.68-1.266.848-2.574 1.723-4.012 2.21-1.133.384-2.46.575-3.965.575"/>
    <path fill="#d4917e" d="M167.27 241.86a.45.45 0 01-.13-.883c.485-.145.977-.336 1.505-.586a17.39 17.39 0 001.792-.985c2.458-1.508 5.008-2.62 7.848-3.808 2.594-1.082 4.535-1.47 7.422-1.477h.023c2.055 0 4.11.461 6.551 1.149a.442.442 0 01.309.55.445.445 0 01-.55.313c-2.372-.668-4.356-1.113-6.31-1.113h-.023c-2.785.007-4.57.363-7.074 1.406-2.805 1.176-5.32 2.27-7.727 3.746-.676.418-1.293.758-1.883 1.031-.566.266-1.097.477-1.62.633a.414.414 0 01-.133.023"/>
    <path fill="#d4917e" d="M181.043 245.523c-.465 0-.941-.02-1.434-.062-2.78-.246-5.558-1.18-8.742-2.941a.45.45 0 11.438-.785c3.066 1.699 5.73 2.597 8.382 2.831 2.579.227 4.715-.171 6.348-1.187 1.477-.922 2.856-2.215 4.07-3.356.583-.55 1.196-1.21 1.84-1.91.657-.707 1.332-1.437 2.043-2.12.203-.196.438-.423.688-.634a.45.45 0 01.633.051.45.45 0 01-.051.633c-.23.195-.453.41-.649.594-.691.668-1.359 1.39-2.004 2.09-.66.71-1.28 1.382-1.886 1.949-1.246 1.172-2.656 2.5-4.207 3.465-1.485.922-3.317 1.382-5.469 1.382M200.29 232.852a.459.459 0 01-.36-.176c-.813-1.063-1.535-2.242-2.235-3.38-.535-.874-1.093-1.78-1.687-2.632-1.63-2.324-3.13-4.406-4.98-6.32-1.919-1.977-4.981-4.356-7.817-5.102-.668-.176-1.418-.226-2.293-.16a.45.45 0 01-.066-.898c.972-.075 1.82-.012 2.585.191 3.797.996 7.262 4.34 8.231 5.344 1.898 1.957 3.484 4.16 5.074 6.43.61.874 1.176 1.792 1.719 2.68.719 1.167 1.394 2.273 2.18 3.3a.448.448 0 01-.352.723"/>
    <path fill="#d4917e" d="M203.863 234.871a.43.43 0 01-.07-.008 31.851 31.851 0 01-2.238-.449c-5.621-1.332-10.91-4.148-14.512-7.734-1.746-1.735-4.047-4.493-5.117-7.809-.09-.273-.172-.543-.254-.805-.29-.914-.559-1.773-.879-2.546a9.571 9.571 0 00-.309-.688.452.452 0 01.2-.602.449.449 0 01.601.204c.13.254.242.504.34.75.332.8.61 1.68.902 2.609.082.262.164.531.254.805 1.012 3.14 3.219 5.785 4.89 7.445 3.493 3.469 8.622 6.2 14.079 7.496a30.948 30.948 0 002.188.438c.242.043.41.273.37.52a.455.455 0 01-.445.374M179.063 207.313c-.473 0-.958-.024-1.454-.079a97.271 97.271 0 01-6.5-.906c-2.797-.476-5.605-1.344-8.351-2.57-.969-.434-1.922-.946-2.84-1.442-1.273-.687-2.594-1.398-3.95-1.886a.453.453 0 01-.269-.575.446.446 0 01.574-.27c1.418.513 2.766 1.24 4.07 1.942.907.485 1.84.989 2.782 1.41 2.676 1.196 5.414 2.04 8.137 2.508 2.218.383 4.386.684 6.441.899 2.367.25 4.477-.211 6.227-.692a.448.448 0 11.238.864c-1.469.406-3.184.797-5.106.797M183.496 194.715a.452.452 0 01-.379-.207c-3.566-5.598-5.664-10.887-6.597-16.649-.868-5.308-1.989-9.476-3.645-13.507a.45.45 0 01.832-.344c1.68 4.101 2.82 8.328 3.7 13.707.913 5.637 2.968 10.82 6.468 16.308a.449.449 0 01-.379.692M197.715 189.047a.445.445 0 01-.445-.414c-.13-1.735-1.348-3.785-2.239-5.285-.18-.305-.351-.59-.5-.852-.926-1.629-2.152-3.09-3.34-4.508-.886-1.062-1.804-2.156-2.605-3.328-1.059-1.543-1.836-3.238-2.59-4.875a56.61 56.61 0 00-1.316-2.738.447.447 0 11.793-.418c.484.914.918 1.863 1.34 2.781.738 1.602 1.5 3.262 2.511 4.742.778 1.133 1.684 2.215 2.559 3.258 1.21 1.45 2.46 2.945 3.426 4.64.148.259.316.54.496.84.933 1.575 2.215 3.731 2.36 5.676a.452.452 0 01-.415.48h-.035"/>
</svg>